<?xml version="1.0" encoding="UTF-8"?>
<svg xmlns="http://www.w3.org/2000/svg" xmlns:xlink="http://www.w3.org/1999/xlink" width="30px" height="30px" viewBox="0 0 30 30" version="1.1">
<g id="surface1">
<path style=" stroke:none;fill-rule:evenodd;fill:rgb(42.352941%,67.45098%,98.823529%);fill-opacity:1;" d="M 8.457031 14.464844 C 8.378906 14.476562 8.246094 14.488281 8.152344 14.5 C 8.058594 14.511719 7.945312 14.523438 7.898438 14.535156 C 7.578125 14.605469 7.335938 14.664062 7.246094 14.699219 C 7.210938 14.714844 7.121094 14.742188 7.042969 14.765625 C 6.964844 14.785156 6.898438 14.8125 6.898438 14.828125 C 6.898438 14.839844 6.867188 14.847656 6.828125 14.847656 C 6.785156 14.847656 6.746094 14.863281 6.734375 14.878906 C 6.722656 14.898438 6.691406 14.910156 6.660156 14.910156 C 6.625 14.910156 6.601562 14.921875 6.601562 14.929688 C 6.601562 14.957031 6.457031 15.03125 6.402344 15.03125 C 6.375 15.03125 6.359375 15.042969 6.359375 15.058594 C 6.359375 15.074219 6.332031 15.089844 6.300781 15.089844 C 6.265625 15.089844 6.238281 15.101562 6.238281 15.121094 C 6.238281 15.136719 6.226562 15.152344 6.207031 15.152344 C 6.191406 15.152344 6.117188 15.191406 6.046875 15.242188 C 5.972656 15.289062 5.902344 15.332031 5.882812 15.332031 C 5.863281 15.332031 5.847656 15.34375 5.847656 15.359375 C 5.847656 15.375 5.828125 15.390625 5.804688 15.390625 C 5.78125 15.390625 5.757812 15.402344 5.757812 15.421875 C 5.757812 15.4375 5.746094 15.453125 5.726562 15.453125 C 5.707031 15.453125 5.65625 15.488281 5.609375 15.542969 C 5.5625 15.589844 5.511719 15.628906 5.492188 15.628906 C 5.46875 15.628906 5.40625 15.679688 5.347656 15.738281 C 5.289062 15.796875 5.21875 15.859375 5.195312 15.878906 C 5.121094 15.933594 4.707031 16.378906 4.605469 16.507812 C 4.554688 16.574219 4.496094 16.644531 4.476562 16.664062 C 4.457031 16.6875 4.4375 16.722656 4.4375 16.746094 C 4.4375 16.769531 4.410156 16.804688 4.378906 16.832031 C 4.347656 16.855469 4.320312 16.890625 4.320312 16.914062 C 4.320312 16.933594 4.304688 16.949219 4.292969 16.949219 C 4.273438 16.949219 4.261719 16.964844 4.261719 16.980469 C 4.261719 17 4.234375 17.039062 4.203125 17.070312 C 4.175781 17.105469 4.128906 17.167969 4.109375 17.210938 C 4.085938 17.257812 4.058594 17.300781 4.050781 17.308594 C 4.042969 17.320312 4.015625 17.363281 3.992188 17.417969 C 3.964844 17.464844 3.941406 17.511719 3.929688 17.519531 C 3.894531 17.554688 3.839844 17.671875 3.839844 17.710938 C 3.839844 17.738281 3.828125 17.761719 3.816406 17.765625 C 3.789062 17.777344 3.539062 18.273438 3.539062 18.324219 C 3.539062 18.34375 3.527344 18.359375 3.507812 18.359375 C 3.496094 18.359375 3.480469 18.382812 3.480469 18.417969 C 3.480469 18.449219 3.46875 18.484375 3.449219 18.496094 C 3.433594 18.503906 3.417969 18.535156 3.417969 18.566406 C 3.417969 18.59375 3.390625 18.675781 3.359375 18.742188 C 3.324219 18.8125 3.296875 18.886719 3.296875 18.910156 C 3.296875 18.9375 3.289062 18.964844 3.269531 18.972656 C 3.253906 18.984375 3.238281 19.027344 3.238281 19.0625 C 3.238281 19.105469 3.226562 19.144531 3.207031 19.15625 C 3.191406 19.167969 3.183594 19.183594 3.195312 19.203125 C 3.207031 19.214844 3.199219 19.234375 3.179688 19.246094 C 3.164062 19.257812 3.148438 19.316406 3.148438 19.378906 C 3.148438 19.445312 3.136719 19.5 3.121094 19.5 C 3.101562 19.5 3.089844 19.539062 3.089844 19.585938 C 3.089844 19.636719 3.078125 19.683594 3.0625 19.695312 C 3.042969 19.703125 3.03125 19.753906 3.03125 19.800781 C 3.03125 19.847656 3.015625 19.894531 3 19.90625 C 2.984375 19.914062 2.972656 19.96875 2.972656 20.023438 C 2.972656 20.082031 2.957031 20.128906 2.941406 20.128906 C 2.921875 20.128906 2.910156 20.183594 2.910156 20.25 C 2.910156 20.316406 2.894531 20.375 2.882812 20.382812 C 2.863281 20.394531 2.851562 20.464844 2.851562 20.535156 C 2.851562 20.609375 2.835938 20.667969 2.824219 20.667969 C 2.796875 20.667969 2.785156 20.730469 2.742188 21.078125 C 2.734375 21.15625 2.710938 21.238281 2.699219 21.253906 C 2.679688 21.269531 2.671875 21.351562 2.671875 21.441406 C 2.671875 21.527344 2.65625 21.601562 2.644531 21.601562 C 2.628906 21.601562 2.617188 21.683594 2.613281 21.785156 C 2.609375 21.890625 2.59375 21.988281 2.582031 22.003906 C 2.558594 22.035156 2.535156 22.226562 2.503906 22.832031 C 2.492188 22.984375 2.476562 23.128906 2.457031 23.144531 C 2.417969 23.191406 2.417969 25.679688 2.460938 25.679688 C 2.476562 25.679688 2.488281 25.761719 2.488281 25.875 C 2.488281 25.980469 2.503906 26.074219 2.515625 26.085938 C 2.539062 26.097656 2.5625 26.175781 2.597656 26.4375 C 2.609375 26.5 2.628906 26.558594 2.644531 26.566406 C 2.65625 26.578125 2.671875 26.617188 2.671875 26.65625 C 2.671875 26.699219 2.683594 26.730469 2.699219 26.730469 C 2.714844 26.730469 2.730469 26.769531 2.730469 26.820312 C 2.730469 26.871094 2.742188 26.910156 2.761719 26.910156 C 2.777344 26.910156 2.789062 26.949219 2.789062 27 C 2.789062 27.050781 2.800781 27.089844 2.820312 27.089844 C 2.835938 27.089844 2.851562 27.117188 2.851562 27.148438 C 2.851562 27.183594 2.863281 27.210938 2.882812 27.210938 C 2.894531 27.210938 2.910156 27.234375 2.910156 27.269531 C 2.910156 27.304688 2.921875 27.328125 2.941406 27.328125 C 2.957031 27.328125 2.972656 27.355469 2.972656 27.390625 C 2.972656 27.421875 2.984375 27.449219 3 27.449219 C 3.015625 27.449219 3.03125 27.476562 3.03125 27.511719 C 3.03125 27.542969 3.042969 27.570312 3.0625 27.570312 C 3.078125 27.570312 3.089844 27.589844 3.089844 27.613281 C 3.089844 27.640625 3.101562 27.660156 3.121094 27.660156 C 3.136719 27.660156 3.148438 27.671875 3.148438 27.691406 C 3.148438 27.730469 3.332031 28.015625 3.414062 28.101562 C 3.449219 28.140625 3.480469 28.179688 3.480469 28.199219 C 3.480469 28.238281 4.105469 28.859375 4.144531 28.859375 C 4.160156 28.859375 4.164062 28.875 4.152344 28.894531 C 4.140625 28.914062 4.144531 28.921875 4.164062 28.90625 C 4.179688 28.898438 4.230469 28.921875 4.269531 28.960938 C 4.3125 29.003906 4.386719 29.0625 4.433594 29.09375 C 4.480469 29.121094 4.597656 29.195312 4.691406 29.257812 C 4.785156 29.320312 4.878906 29.371094 4.90625 29.371094 C 4.929688 29.371094 4.949219 29.382812 4.949219 29.398438 C 4.949219 29.417969 4.976562 29.429688 5.011719 29.429688 C 5.042969 29.429688 5.070312 29.445312 5.070312 29.457031 C 5.070312 29.476562 5.097656 29.488281 5.128906 29.488281 C 5.164062 29.488281 5.191406 29.503906 5.191406 29.519531 C 5.191406 29.539062 5.21875 29.546875 5.25 29.546875 C 5.285156 29.546875 5.3125 29.5625 5.3125 29.574219 C 5.3125 29.585938 5.375 29.617188 5.460938 29.640625 C 5.542969 29.664062 5.609375 29.691406 5.609375 29.707031 C 5.609375 29.71875 5.648438 29.730469 5.699219 29.730469 C 5.746094 29.730469 5.792969 29.746094 5.804688 29.757812 C 5.816406 29.777344 5.855469 29.789062 5.898438 29.789062 C 5.9375 29.789062 5.96875 29.804688 5.96875 29.820312 C 5.96875 29.839844 6.019531 29.847656 6.074219 29.847656 C 6.132812 29.847656 6.183594 29.863281 6.195312 29.878906 C 6.203125 29.898438 6.269531 29.910156 6.34375 29.910156 C 6.410156 29.910156 6.484375 29.925781 6.503906 29.949219 C 6.535156 29.976562 7.414062 29.984375 10.648438 29.992188 L 14.757812 30.003906 L 14.757812 16.742188 L 14.566406 16.742188 C 14.457031 16.742188 14.371094 16.726562 14.371094 16.710938 C 14.371094 16.691406 14.28125 16.679688 14.160156 16.679688 C 14.023438 16.679688 13.953125 16.667969 13.964844 16.652344 C 13.976562 16.628906 13.925781 16.621094 13.832031 16.621094 C 13.75 16.621094 13.679688 16.605469 13.679688 16.589844 C 13.679688 16.574219 13.628906 16.5625 13.566406 16.5625 C 13.503906 16.5625 13.4375 16.546875 13.421875 16.53125 C 13.40625 16.515625 13.347656 16.5 13.296875 16.496094 C 13.242188 16.488281 13.199219 16.476562 13.199219 16.464844 C 13.199219 16.449219 13.160156 16.441406 13.109375 16.441406 C 13.058594 16.441406 13.023438 16.425781 13.023438 16.410156 C 13.023438 16.390625 12.988281 16.378906 12.945312 16.378906 C 12.90625 16.378906 12.871094 16.363281 12.871094 16.351562 C 12.871094 16.332031 12.835938 16.320312 12.792969 16.320312 C 12.753906 16.320312 12.71875 16.304688 12.71875 16.289062 C 12.71875 16.273438 12.6875 16.261719 12.644531 16.261719 C 12.605469 16.261719 12.570312 16.246094 12.570312 16.230469 C 12.570312 16.214844 12.527344 16.199219 12.480469 16.199219 C 12.433594 16.199219 12.390625 16.1875 12.390625 16.167969 C 12.390625 16.15625 12.363281 16.140625 12.332031 16.140625 C 12.300781 16.140625 12.265625 16.128906 12.257812 16.109375 C 12.246094 16.09375 12.203125 16.078125 12.164062 16.078125 C 12.121094 16.078125 12.089844 16.070312 12.089844 16.058594 C 12.089844 16.03125 11.941406 15.960938 11.886719 15.960938 C 11.867188 15.960938 11.851562 15.949219 11.851562 15.929688 C 11.851562 15.914062 11.832031 15.898438 11.8125 15.898438 C 11.792969 15.898438 11.726562 15.863281 11.664062 15.824219 C 11.601562 15.78125 11.535156 15.75 11.511719 15.75 C 11.492188 15.75 11.453125 15.722656 11.429688 15.6875 C 11.40625 15.660156 11.363281 15.628906 11.332031 15.628906 C 11.304688 15.628906 11.28125 15.621094 11.28125 15.605469 C 11.28125 15.59375 11.242188 15.5625 11.199219 15.539062 C 11.152344 15.511719 11.089844 15.472656 11.058594 15.441406 C 11.027344 15.414062 10.980469 15.390625 10.960938 15.390625 C 10.941406 15.390625 10.917969 15.378906 10.914062 15.363281 C 10.910156 15.347656 10.882812 15.332031 10.859375 15.324219 C 10.835938 15.320312 10.792969 15.292969 10.765625 15.261719 C 10.738281 15.234375 10.699219 15.210938 10.675781 15.210938 C 10.652344 15.210938 10.613281 15.183594 10.589844 15.152344 C 10.566406 15.117188 10.535156 15.089844 10.523438 15.089844 C 10.507812 15.089844 10.4375 15.046875 10.363281 15 C 10.292969 14.953125 10.222656 14.910156 10.210938 14.910156 C 10.199219 14.910156 10.164062 14.886719 10.132812 14.859375 C 10.039062 14.773438 9.664062 14.582031 9.417969 14.496094 C 9.273438 14.449219 8.710938 14.429688 8.457031 14.464844 "/>
<path style=" stroke:none;fill-rule:evenodd;fill:rgb(14.117647%,51.764706%,98.823529%);fill-opacity:1;" d="M 20.828125 14.46875 C 20.832031 14.492188 20.789062 14.507812 20.699219 14.507812 C 20.628906 14.507812 20.5625 14.523438 20.554688 14.546875 C 20.542969 14.59375 20.429688 14.589844 20.429688 14.542969 C 20.429688 14.519531 20.414062 14.53125 20.394531 14.566406 C 20.347656 14.652344 20.347656 14.652344 20.292969 14.609375 C 20.265625 14.585938 20.25 14.582031 20.253906 14.597656 C 20.265625 14.664062 20.246094 14.691406 20.191406 14.679688 C 20.148438 14.667969 20.128906 14.679688 20.128906 14.714844 C 20.128906 14.75 20.117188 14.753906 20.074219 14.730469 C 20.027344 14.707031 20.019531 14.710938 20.023438 14.75 C 20.023438 14.785156 20.003906 14.804688 19.96875 14.800781 C 19.9375 14.796875 19.921875 14.804688 19.933594 14.8125 C 19.941406 14.820312 19.914062 14.847656 19.871094 14.867188 C 19.777344 14.917969 19.761719 14.921875 19.789062 14.875 C 19.800781 14.855469 19.796875 14.847656 19.773438 14.863281 C 19.757812 14.871094 19.738281 14.898438 19.738281 14.914062 C 19.738281 14.957031 19.660156 15.03125 19.609375 15.03125 C 19.582031 15.03125 19.558594 15.042969 19.558594 15.0625 C 19.558594 15.082031 19.539062 15.089844 19.515625 15.078125 C 19.488281 15.070312 19.46875 15.078125 19.46875 15.105469 C 19.46875 15.132812 19.449219 15.152344 19.425781 15.152344 C 19.402344 15.152344 19.378906 15.160156 19.378906 15.179688 C 19.378906 15.195312 19.351562 15.210938 19.320312 15.210938 C 19.285156 15.210938 19.261719 15.222656 19.273438 15.242188 C 19.285156 15.253906 19.273438 15.269531 19.246094 15.269531 C 19.222656 15.269531 19.203125 15.28125 19.203125 15.300781 C 19.203125 15.316406 19.175781 15.332031 19.144531 15.332031 C 19.117188 15.332031 19.074219 15.359375 19.050781 15.390625 C 19.003906 15.453125 18.910156 15.476562 18.945312 15.417969 C 18.960938 15.394531 18.957031 15.390625 18.9375 15.398438 C 18.917969 15.414062 18.910156 15.441406 18.917969 15.464844 C 18.929688 15.492188 18.917969 15.511719 18.890625 15.511719 C 18.867188 15.511719 18.839844 15.527344 18.828125 15.546875 C 18.820312 15.574219 18.804688 15.574219 18.785156 15.542969 C 18.75 15.496094 18.734375 15.527344 18.746094 15.605469 C 18.75 15.621094 18.730469 15.628906 18.707031 15.628906 C 18.679688 15.628906 18.660156 15.644531 18.660156 15.660156 C 18.660156 15.675781 18.640625 15.6875 18.617188 15.6875 C 18.589844 15.6875 18.570312 15.699219 18.570312 15.714844 C 18.570312 15.761719 18.410156 15.8125 18.382812 15.773438 C 18.367188 15.746094 18.359375 15.753906 18.367188 15.796875 C 18.371094 15.835938 18.359375 15.855469 18.324219 15.851562 C 18.296875 15.847656 18.269531 15.863281 18.269531 15.890625 C 18.269531 15.917969 18.246094 15.925781 18.195312 15.917969 C 18.148438 15.910156 18.128906 15.917969 18.136719 15.941406 C 18.148438 15.96875 18.121094 15.976562 18.054688 15.96875 C 18 15.964844 17.972656 15.96875 17.992188 15.980469 C 18.042969 16.003906 18.039062 16.050781 17.988281 16.03125 C 17.964844 16.023438 17.9375 16.03125 17.925781 16.046875 C 17.914062 16.066406 17.890625 16.078125 17.878906 16.078125 C 17.859375 16.078125 17.855469 16.066406 17.863281 16.050781 C 17.875 16.035156 17.867188 16.019531 17.851562 16.019531 C 17.828125 16.019531 17.804688 16.046875 17.796875 16.078125 C 17.789062 16.113281 17.765625 16.140625 17.738281 16.140625 C 17.714844 16.140625 17.707031 16.128906 17.714844 16.105469 C 17.726562 16.089844 17.710938 16.09375 17.675781 16.113281 C 17.640625 16.132812 17.621094 16.164062 17.628906 16.179688 C 17.640625 16.195312 17.617188 16.203125 17.566406 16.191406 C 17.515625 16.183594 17.488281 16.191406 17.488281 16.21875 C 17.488281 16.246094 17.457031 16.261719 17.417969 16.261719 C 17.375 16.261719 17.339844 16.273438 17.339844 16.289062 C 17.339844 16.304688 17.304688 16.320312 17.265625 16.320312 C 17.222656 16.320312 17.1875 16.332031 17.1875 16.351562 C 17.1875 16.363281 17.160156 16.378906 17.125 16.378906 C 17.09375 16.378906 17.074219 16.363281 17.085938 16.351562 C 17.09375 16.332031 17.089844 16.320312 17.070312 16.320312 C 17.039062 16.320312 17.027344 16.363281 17.035156 16.421875 C 17.039062 16.4375 17.007812 16.441406 16.964844 16.433594 C 16.914062 16.421875 16.878906 16.433594 16.867188 16.457031 C 16.851562 16.507812 16.742188 16.515625 16.742188 16.46875 C 16.742188 16.417969 16.683594 16.4375 16.664062 16.5 C 16.652344 16.542969 16.621094 16.5625 16.542969 16.5625 C 16.484375 16.5625 16.441406 16.574219 16.441406 16.589844 C 16.441406 16.605469 16.378906 16.621094 16.304688 16.621094 C 16.230469 16.621094 16.167969 16.632812 16.167969 16.652344 C 16.167969 16.667969 16.089844 16.679688 15.988281 16.679688 C 15.882812 16.679688 15.8125 16.691406 15.824219 16.710938 C 15.835938 16.722656 15.707031 16.742188 15.515625 16.75 C 15.339844 16.757812 15.105469 16.777344 15 16.789062 L 14.804688 16.816406 L 14.789062 30.003906 L 19.011719 29.988281 C 23.359375 29.976562 23.316406 29.976562 23.292969 29.933594 C 23.28125 29.921875 23.316406 29.910156 23.367188 29.910156 C 23.421875 29.910156 23.453125 29.925781 23.445312 29.941406 C 23.414062 29.992188 23.476562 29.972656 23.542969 29.910156 C 23.585938 29.867188 23.648438 29.847656 23.726562 29.847656 C 23.796875 29.847656 23.851562 29.839844 23.851562 29.820312 C 23.851562 29.804688 23.890625 29.789062 23.941406 29.789062 C 23.988281 29.789062 24.03125 29.777344 24.03125 29.757812 C 24.03125 29.746094 24.074219 29.730469 24.132812 29.730469 C 24.1875 29.730469 24.242188 29.714844 24.246094 29.691406 C 24.257812 29.664062 24.273438 29.664062 24.328125 29.691406 C 24.382812 29.726562 24.390625 29.722656 24.390625 29.667969 C 24.390625 29.632812 24.410156 29.609375 24.449219 29.609375 C 24.480469 29.609375 24.515625 29.597656 24.527344 29.578125 C 24.535156 29.5625 24.574219 29.546875 24.617188 29.546875 C 24.65625 29.546875 24.6875 29.539062 24.6875 29.519531 C 24.6875 29.503906 24.714844 29.488281 24.75 29.488281 C 24.78125 29.488281 24.808594 29.476562 24.808594 29.457031 C 24.808594 29.417969 24.890625 29.425781 24.910156 29.46875 C 24.917969 29.488281 24.925781 29.476562 24.925781 29.4375 C 24.929688 29.390625 24.945312 29.371094 24.988281 29.371094 C 25.023438 29.371094 25.050781 29.355469 25.050781 29.339844 C 25.050781 29.324219 25.070312 29.320312 25.09375 29.328125 C 25.121094 29.339844 25.140625 29.328125 25.140625 29.296875 C 25.140625 29.273438 25.160156 29.25 25.179688 29.25 C 25.207031 29.25 25.246094 29.242188 25.277344 29.230469 C 25.316406 29.214844 25.324219 29.222656 25.304688 29.25 C 25.289062 29.277344 25.292969 29.28125 25.316406 29.265625 C 25.335938 29.253906 25.347656 29.222656 25.34375 29.195312 C 25.335938 29.15625 25.355469 29.144531 25.425781 29.148438 C 25.472656 29.152344 25.5 29.148438 25.476562 29.136719 C 25.433594 29.121094 25.566406 28.980469 25.625 28.980469 C 25.652344 28.980469 25.652344 28.988281 25.621094 29.011719 C 25.59375 29.023438 25.589844 29.039062 25.605469 29.039062 C 25.621094 29.039062 25.660156 29.019531 25.691406 28.992188 C 25.726562 28.96875 25.738281 28.949219 25.714844 28.949219 C 25.652344 28.949219 25.941406 28.679688 26.015625 28.667969 C 26.066406 28.664062 26.160156 28.53125 26.113281 28.53125 C 26.105469 28.53125 26.191406 28.4375 26.300781 28.328125 C 26.410156 28.214844 26.511719 28.125 26.527344 28.125 C 26.535156 28.125 26.558594 28.113281 26.566406 28.101562 C 26.582031 28.089844 26.574219 28.082031 26.554688 28.082031 C 26.535156 28.082031 26.519531 28.066406 26.519531 28.050781 C 26.519531 28.03125 26.53125 28.023438 26.550781 28.035156 C 26.566406 28.046875 26.574219 28.035156 26.5625 28.015625 C 26.558594 27.992188 26.578125 27.960938 26.609375 27.9375 C 26.65625 27.90625 26.671875 27.90625 26.671875 27.933594 C 26.671875 27.957031 26.703125 27.925781 26.746094 27.863281 C 26.800781 27.78125 26.816406 27.730469 26.800781 27.671875 C 26.785156 27.605469 26.789062 27.59375 26.832031 27.613281 C 26.875 27.625 26.878906 27.617188 26.863281 27.570312 C 26.851562 27.527344 26.859375 27.511719 26.890625 27.511719 C 26.917969 27.511719 26.929688 27.492188 26.917969 27.449219 C 26.910156 27.414062 26.917969 27.390625 26.9375 27.390625 C 26.957031 27.390625 26.96875 27.363281 26.96875 27.332031 C 26.96875 27.300781 26.996094 27.269531 27.035156 27.261719 C 27.09375 27.242188 27.097656 27.234375 27.058594 27.207031 C 27.027344 27.183594 27.027344 27.171875 27.054688 27.160156 C 27.074219 27.152344 27.089844 27.113281 27.089844 27.074219 C 27.089844 27.03125 27.105469 27 27.117188 27 C 27.136719 27 27.148438 26.96875 27.148438 26.9375 C 27.148438 26.902344 27.179688 26.847656 27.21875 26.816406 C 27.253906 26.78125 27.265625 26.761719 27.246094 26.773438 C 27.226562 26.789062 27.210938 26.773438 27.210938 26.734375 C 27.210938 26.703125 27.238281 26.664062 27.277344 26.644531 C 27.316406 26.628906 27.328125 26.613281 27.308594 26.613281 C 27.261719 26.609375 27.257812 26.5 27.300781 26.472656 C 27.316406 26.464844 27.328125 26.40625 27.328125 26.347656 C 27.328125 26.265625 27.347656 26.21875 27.390625 26.191406 C 27.449219 26.148438 27.476562 26.082031 27.417969 26.117188 C 27.402344 26.125 27.390625 26.09375 27.390625 26.042969 C 27.390625 25.992188 27.40625 25.949219 27.417969 25.949219 C 27.4375 25.949219 27.449219 25.855469 27.449219 25.726562 C 27.449219 25.59375 27.464844 25.5 27.480469 25.5 C 27.496094 25.5 27.511719 25.414062 27.511719 25.3125 C 27.511719 25.203125 27.523438 25.105469 27.546875 25.082031 C 27.578125 25.050781 27.578125 25.046875 27.546875 25.0625 C 27.519531 25.078125 27.507812 24.917969 27.507812 24.296875 C 27.507812 23.828125 27.496094 23.53125 27.480469 23.566406 C 27.464844 23.601562 27.453125 23.511719 27.453125 23.300781 C 27.449219 23.09375 27.460938 22.984375 27.480469 22.996094 C 27.496094 23.007812 27.511719 23 27.511719 22.984375 C 27.511719 22.964844 27.496094 22.953125 27.480469 22.953125 C 27.464844 22.953125 27.449219 22.910156 27.449219 22.859375 C 27.449219 22.808594 27.4375 22.769531 27.417969 22.769531 C 27.402344 22.769531 27.390625 22.652344 27.390625 22.46875 C 27.390625 22.289062 27.378906 22.167969 27.359375 22.167969 C 27.34375 22.167969 27.328125 22.113281 27.328125 22.046875 C 27.328125 21.976562 27.34375 21.933594 27.359375 21.945312 C 27.378906 21.957031 27.390625 21.949219 27.390625 21.929688 C 27.390625 21.914062 27.378906 21.898438 27.359375 21.898438 C 27.34375 21.898438 27.328125 21.871094 27.328125 21.839844 C 27.328125 21.808594 27.316406 21.78125 27.300781 21.78125 C 27.285156 21.78125 27.269531 21.699219 27.269531 21.601562 C 27.269531 21.5 27.257812 21.421875 27.238281 21.421875 C 27.222656 21.421875 27.210938 21.359375 27.210938 21.285156 C 27.210938 21.199219 27.222656 21.152344 27.238281 21.167969 C 27.296875 21.199219 27.269531 21.132812 27.210938 21.089844 C 27.148438 21.046875 27.121094 20.859375 27.179688 20.894531 C 27.234375 20.929688 27.210938 20.863281 27.148438 20.820312 C 27.105469 20.785156 27.089844 20.742188 27.089844 20.632812 C 27.089844 20.554688 27.078125 20.492188 27.058594 20.492188 C 27.042969 20.492188 27.027344 20.429688 27.027344 20.355469 C 27.027344 20.28125 27.015625 20.21875 27 20.21875 C 26.984375 20.21875 26.96875 20.171875 26.96875 20.113281 C 26.96875 20.054688 26.957031 20.011719 26.9375 20.011719 C 26.921875 20.011719 26.910156 19.964844 26.910156 19.90625 C 26.910156 19.847656 26.898438 19.800781 26.878906 19.800781 C 26.839844 19.800781 26.84375 19.6875 26.878906 19.664062 C 26.902344 19.648438 26.890625 19.625 26.851562 19.597656 C 26.792969 19.558594 26.789062 19.535156 26.804688 19.429688 C 26.820312 19.34375 26.816406 19.320312 26.792969 19.351562 C 26.765625 19.386719 26.761719 19.386719 26.742188 19.34375 C 26.734375 19.3125 26.738281 19.269531 26.757812 19.246094 C 26.785156 19.214844 26.785156 19.203125 26.757812 19.183594 C 26.734375 19.167969 26.730469 19.175781 26.742188 19.203125 C 26.753906 19.226562 26.746094 19.222656 26.71875 19.191406 C 26.695312 19.160156 26.683594 19.113281 26.691406 19.078125 C 26.703125 19.035156 26.695312 19.019531 26.667969 19.027344 C 26.640625 19.03125 26.628906 19.015625 26.636719 18.980469 C 26.640625 18.949219 26.617188 18.910156 26.589844 18.882812 C 26.546875 18.851562 26.542969 18.839844 26.578125 18.796875 C 26.613281 18.757812 26.609375 18.746094 26.566406 18.734375 C 26.542969 18.722656 26.519531 18.679688 26.519531 18.644531 C 26.519531 18.601562 26.503906 18.570312 26.492188 18.570312 C 26.472656 18.570312 26.460938 18.550781 26.460938 18.523438 C 26.460938 18.5 26.472656 18.484375 26.492188 18.496094 C 26.507812 18.507812 26.507812 18.488281 26.488281 18.453125 C 26.464844 18.421875 26.4375 18.402344 26.421875 18.410156 C 26.410156 18.414062 26.402344 18.394531 26.402344 18.359375 C 26.402344 18.328125 26.382812 18.296875 26.367188 18.296875 C 26.347656 18.296875 26.339844 18.273438 26.347656 18.242188 C 26.355469 18.207031 26.347656 18.179688 26.324219 18.167969 C 26.296875 18.160156 26.28125 18.128906 26.28125 18.105469 C 26.28125 18.082031 26.265625 18.0625 26.25 18.0625 C 26.234375 18.0625 26.21875 18.027344 26.21875 17.984375 C 26.21875 17.941406 26.207031 17.914062 26.191406 17.925781 C 26.175781 17.9375 26.160156 17.914062 26.160156 17.882812 C 26.160156 17.847656 26.148438 17.820312 26.128906 17.820312 C 26.113281 17.820312 26.097656 17.792969 26.097656 17.761719 C 26.097656 17.726562 26.089844 17.699219 26.070312 17.699219 C 26.054688 17.699219 26.039062 17.675781 26.039062 17.640625 C 26.039062 17.605469 26.027344 17.582031 26.007812 17.582031 C 25.996094 17.582031 25.980469 17.554688 25.980469 17.523438 C 25.980469 17.492188 25.964844 17.457031 25.941406 17.449219 C 25.914062 17.4375 25.914062 17.425781 25.949219 17.398438 C 25.988281 17.371094 25.988281 17.367188 25.941406 17.382812 C 25.902344 17.394531 25.882812 17.382812 25.867188 17.339844 C 25.859375 17.304688 25.839844 17.28125 25.824219 17.28125 C 25.8125 17.28125 25.796875 17.261719 25.796875 17.234375 C 25.796875 17.210938 25.789062 17.1875 25.769531 17.1875 C 25.753906 17.1875 25.738281 17.171875 25.738281 17.144531 C 25.738281 17.121094 25.726562 17.097656 25.707031 17.097656 C 25.695312 17.097656 25.679688 17.074219 25.679688 17.046875 C 25.679688 17.015625 25.652344 16.976562 25.621094 16.949219 C 25.582031 16.917969 25.566406 16.886719 25.578125 16.847656 C 25.589844 16.796875 25.589844 16.792969 25.5625 16.832031 C 25.53125 16.871094 25.527344 16.867188 25.519531 16.800781 C 25.515625 16.789062 25.488281 16.75 25.449219 16.71875 C 25.414062 16.6875 25.382812 16.636719 25.371094 16.605469 C 25.355469 16.570312 25.277344 16.464844 25.183594 16.371094 C 25.09375 16.273438 25.03125 16.179688 25.035156 16.15625 C 25.046875 16.136719 25.03125 16.097656 25.003906 16.078125 C 24.953125 16.039062 24.949219 16.039062 24.976562 16.078125 C 24.988281 16.105469 24.933594 16.0625 24.851562 15.984375 C 24.769531 15.910156 24.6875 15.855469 24.667969 15.863281 C 24.648438 15.867188 24.628906 15.863281 24.628906 15.84375 C 24.628906 15.828125 24.648438 15.804688 24.667969 15.796875 C 24.6875 15.789062 24.675781 15.789062 24.636719 15.796875 C 24.574219 15.8125 24.539062 15.773438 24.59375 15.742188 C 24.605469 15.734375 24.59375 15.734375 24.574219 15.742188 C 24.53125 15.75 24.359375 15.585938 24.359375 15.53125 C 24.359375 15.511719 24.347656 15.511719 24.332031 15.539062 C 24.304688 15.574219 24.296875 15.574219 24.25 15.523438 C 24.21875 15.492188 24.15625 15.445312 24.113281 15.421875 C 24.050781 15.390625 24.035156 15.367188 24.046875 15.316406 C 24.058594 15.273438 24.058594 15.265625 24.035156 15.296875 C 24.003906 15.339844 23.808594 15.277344 23.835938 15.234375 C 23.847656 15.21875 23.824219 15.210938 23.789062 15.210938 C 23.753906 15.210938 23.734375 15.195312 23.746094 15.179688 C 23.753906 15.160156 23.734375 15.152344 23.699219 15.152344 C 23.664062 15.152344 23.628906 15.132812 23.621094 15.105469 C 23.613281 15.082031 23.589844 15.070312 23.566406 15.078125 C 23.542969 15.085938 23.519531 15.066406 23.511719 15.023438 C 23.492188 14.964844 23.484375 14.960938 23.460938 15 C 23.4375 15.035156 23.421875 15.039062 23.394531 15.007812 C 23.375 14.984375 23.335938 14.96875 23.304688 14.96875 C 23.277344 14.96875 23.25 14.957031 23.25 14.941406 C 23.25 14.925781 23.21875 14.910156 23.171875 14.910156 C 23.128906 14.910156 23.101562 14.898438 23.113281 14.878906 C 23.125 14.863281 23.101562 14.847656 23.058594 14.847656 C 23.011719 14.847656 22.980469 14.835938 22.980469 14.816406 C 22.980469 14.800781 22.941406 14.789062 22.894531 14.796875 C 22.839844 14.804688 22.808594 14.785156 22.785156 14.75 C 22.769531 14.71875 22.734375 14.683594 22.710938 14.675781 C 22.675781 14.667969 22.671875 14.671875 22.703125 14.691406 C 22.738281 14.71875 22.738281 14.722656 22.699219 14.738281 C 22.671875 14.75 22.632812 14.726562 22.601562 14.679688 C 22.558594 14.609375 22.546875 14.605469 22.523438 14.652344 C 22.484375 14.71875 22.367188 14.71875 22.394531 14.652344 C 22.40625 14.609375 22.394531 14.605469 22.277344 14.625 C 22.164062 14.636719 22.132812 14.632812 22.121094 14.597656 C 22.105469 14.554688 22.074219 14.550781 21.964844 14.570312 C 21.863281 14.582031 21.820312 14.574219 21.796875 14.546875 C 21.761719 14.492188 21.601562 14.457031 21.601562 14.492188 C 21.601562 14.507812 21.476562 14.519531 21.328125 14.519531 C 21.097656 14.519531 21.054688 14.515625 21.070312 14.476562 C 21.082031 14.4375 21.058594 14.429688 20.953125 14.429688 C 20.863281 14.429688 20.820312 14.441406 20.828125 14.46875 M 24.835938 15.945312 C 24.878906 15.984375 24.917969 16.019531 24.917969 16.019531 C 24.945312 16.019531 24.851562 15.898438 24.8125 15.882812 C 24.785156 15.875 24.800781 15.898438 24.835938 15.945312 M 26.789062 27.730469 C 26.789062 27.789062 26.707031 27.875 26.6875 27.84375 C 26.675781 27.824219 26.679688 27.8125 26.699219 27.8125 C 26.714844 27.8125 26.730469 27.785156 26.730469 27.75 C 26.730469 27.71875 26.742188 27.691406 26.761719 27.691406 C 26.777344 27.691406 26.792969 27.707031 26.789062 27.730469 "/>
<path style=" stroke:none;fill-rule:evenodd;fill:rgb(97.254902%,70.196078%,46.666667%);fill-opacity:1;" d="M 13.65625 0.0195312 C 13.539062 0.0273438 13.4375 0.0429688 13.4375 0.0625 C 13.4375 0.0742188 13.378906 0.0898438 13.304688 0.0898438 C 13.230469 0.0898438 13.167969 0.101562 13.167969 0.121094 C 13.167969 0.136719 13.109375 0.152344 13.035156 0.152344 C 12.964844 0.152344 12.894531 0.160156 12.882812 0.179688 C 12.875 0.195312 12.839844 0.210938 12.804688 0.210938 C 12.730469 0.210938 12.347656 0.335938 12.335938 0.367188 C 12.328125 0.378906 12.285156 0.390625 12.238281 0.390625 C 12.191406 0.390625 12.148438 0.402344 12.148438 0.421875 C 12.148438 0.4375 12.125 0.453125 12.09375 0.453125 C 12.027344 0.453125 11.878906 0.515625 11.878906 0.546875 C 11.878906 0.558594 11.851562 0.570312 11.820312 0.570312 C 11.789062 0.570312 11.761719 0.582031 11.761719 0.597656 C 11.761719 0.609375 11.714844 0.632812 11.664062 0.644531 C 11.546875 0.671875 11.566406 0.664062 11.410156 0.734375 C 11.335938 0.761719 11.28125 0.800781 11.28125 0.8125 C 11.28125 0.828125 11.253906 0.839844 11.21875 0.839844 C 11.1875 0.839844 11.160156 0.855469 11.160156 0.867188 C 11.160156 0.886719 11.144531 0.898438 11.117188 0.898438 C 11.097656 0.898438 11.054688 0.921875 11.023438 0.953125 C 10.992188 0.980469 10.925781 1.023438 10.878906 1.050781 C 10.828125 1.074219 10.75 1.128906 10.703125 1.179688 C 10.652344 1.222656 10.597656 1.261719 10.585938 1.261719 C 10.566406 1.261719 10.515625 1.300781 10.472656 1.351562 C 10.421875 1.398438 10.371094 1.441406 10.351562 1.441406 C 10.332031 1.441406 10.25 1.507812 10.171875 1.589844 C 10.089844 1.671875 10.015625 1.742188 10.003906 1.742188 C 9.945312 1.742188 9.300781 2.386719 9.300781 2.445312 C 9.300781 2.457031 9.234375 2.53125 9.152344 2.609375 C 9.066406 2.691406 9 2.769531 9 2.792969 C 9 2.808594 8.957031 2.863281 8.910156 2.910156 C 8.863281 2.957031 8.820312 3.007812 8.820312 3.027344 C 8.820312 3.046875 8.78125 3.101562 8.734375 3.152344 C 8.6875 3.203125 8.625 3.289062 8.597656 3.34375 C 8.570312 3.398438 8.53125 3.460938 8.507812 3.480469 C 8.480469 3.5 8.460938 3.535156 8.460938 3.558594 C 8.460938 3.582031 8.449219 3.597656 8.429688 3.597656 C 8.414062 3.597656 8.398438 3.625 8.398438 3.660156 C 8.398438 3.691406 8.390625 3.71875 8.371094 3.71875 C 8.359375 3.71875 8.316406 3.796875 8.277344 3.890625 C 8.242188 3.988281 8.195312 4.074219 8.183594 4.085938 C 8.167969 4.09375 8.15625 4.113281 8.160156 4.121094 C 8.160156 4.175781 8.121094 4.320312 8.097656 4.320312 C 8.082031 4.320312 8.070312 4.347656 8.070312 4.378906 C 8.070312 4.410156 8.054688 4.4375 8.042969 4.4375 C 8.023438 4.4375 8.011719 4.472656 8.011719 4.511719 C 8.011719 4.554688 7.996094 4.59375 7.980469 4.605469 C 7.960938 4.613281 7.953125 4.65625 7.953125 4.699219 C 7.953125 4.734375 7.9375 4.769531 7.921875 4.769531 C 7.902344 4.769531 7.890625 4.804688 7.890625 4.847656 C 7.890625 4.886719 7.875 4.917969 7.859375 4.917969 C 7.84375 4.917969 7.832031 4.964844 7.832031 5.023438 C 7.832031 5.082031 7.816406 5.128906 7.800781 5.128906 C 7.78125 5.128906 7.769531 5.183594 7.769531 5.25 C 7.769531 5.316406 7.753906 5.371094 7.742188 5.371094 C 7.722656 5.371094 7.710938 5.425781 7.710938 5.492188 C 7.710938 5.554688 7.695312 5.609375 7.679688 5.609375 C 7.660156 5.609375 7.652344 5.667969 7.652344 5.746094 C 7.652344 5.816406 7.636719 5.878906 7.621094 5.878906 C 7.601562 5.878906 7.589844 5.96875 7.589844 6.089844 C 7.589844 6.210938 7.574219 6.300781 7.558594 6.300781 C 7.542969 6.300781 7.53125 6.632812 7.53125 7.230469 C 7.53125 7.832031 7.542969 8.160156 7.558594 8.160156 C 7.574219 8.160156 7.589844 8.25 7.589844 8.367188 C 7.589844 8.488281 7.601562 8.578125 7.621094 8.578125 C 7.636719 8.578125 7.652344 8.648438 7.652344 8.730469 C 7.652344 8.8125 7.660156 8.878906 7.679688 8.878906 C 7.695312 8.878906 7.710938 8.933594 7.710938 9 C 7.710938 9.066406 7.722656 9.121094 7.742188 9.121094 C 7.753906 9.121094 7.769531 9.164062 7.769531 9.222656 C 7.769531 9.277344 7.78125 9.332031 7.800781 9.34375 C 7.816406 9.355469 7.832031 9.394531 7.832031 9.4375 C 7.832031 9.476562 7.84375 9.507812 7.859375 9.507812 C 7.875 9.507812 7.890625 9.550781 7.890625 9.597656 C 7.890625 9.652344 7.902344 9.6875 7.921875 9.6875 C 7.9375 9.6875 7.953125 9.730469 7.953125 9.78125 C 7.953125 9.828125 7.960938 9.871094 7.980469 9.871094 C 7.996094 9.871094 8.011719 9.910156 8.011719 9.960938 C 8.011719 10.007812 8.023438 10.050781 8.042969 10.050781 C 8.054688 10.050781 8.070312 10.078125 8.070312 10.109375 C 8.070312 10.144531 8.082031 10.171875 8.101562 10.171875 C 8.117188 10.171875 8.128906 10.1875 8.128906 10.210938 C 8.128906 10.269531 8.285156 10.601562 8.316406 10.617188 C 8.332031 10.621094 8.339844 10.648438 8.339844 10.679688 C 8.339844 10.714844 8.355469 10.738281 8.367188 10.738281 C 8.386719 10.738281 8.398438 10.757812 8.398438 10.777344 C 8.398438 10.800781 8.425781 10.847656 8.460938 10.882812 C 8.492188 10.917969 8.519531 10.96875 8.519531 10.996094 C 8.519531 11.019531 8.53125 11.039062 8.546875 11.039062 C 8.5625 11.039062 8.589844 11.082031 8.609375 11.128906 C 8.628906 11.179688 8.65625 11.21875 8.675781 11.21875 C 8.6875 11.21875 8.699219 11.238281 8.699219 11.261719 C 8.699219 11.285156 8.742188 11.34375 8.789062 11.394531 C 8.839844 11.445312 8.878906 11.5 8.878906 11.515625 C 8.878906 11.527344 8.921875 11.585938 8.96875 11.636719 C 9.019531 11.6875 9.0625 11.738281 9.0625 11.75 C 9.0625 11.761719 9.140625 11.847656 9.242188 11.941406 C 9.339844 12.039062 9.417969 12.117188 9.40625 12.117188 C 9.398438 12.117188 9.417969 12.15625 9.457031 12.203125 C 9.570312 12.339844 9.742188 12.511719 9.761719 12.511719 C 9.773438 12.511719 9.875 12.605469 9.988281 12.71875 C 10.101562 12.835938 10.210938 12.933594 10.234375 12.933594 C 10.253906 12.941406 10.320312 12.992188 10.378906 13.042969 C 10.433594 13.097656 10.503906 13.140625 10.523438 13.140625 C 10.546875 13.140625 10.601562 13.179688 10.648438 13.226562 C 10.695312 13.28125 10.75 13.320312 10.765625 13.320312 C 10.785156 13.320312 10.796875 13.332031 10.796875 13.347656 C 10.796875 13.367188 10.824219 13.378906 10.859375 13.378906 C 10.890625 13.378906 10.917969 13.394531 10.917969 13.410156 C 10.917969 13.425781 10.941406 13.4375 10.964844 13.4375 C 10.988281 13.4375 11.007812 13.453125 11.007812 13.46875 C 11.007812 13.488281 11.03125 13.5 11.054688 13.5 C 11.082031 13.5 11.097656 13.515625 11.097656 13.53125 C 11.097656 13.546875 11.121094 13.558594 11.152344 13.558594 C 11.179688 13.558594 11.226562 13.585938 11.25 13.621094 C 11.273438 13.652344 11.320312 13.679688 11.347656 13.679688 C 11.378906 13.679688 11.402344 13.695312 11.402344 13.710938 C 11.402344 13.726562 11.425781 13.738281 11.460938 13.738281 C 11.496094 13.738281 11.519531 13.753906 11.519531 13.769531 C 11.519531 13.785156 11.546875 13.800781 11.582031 13.800781 C 11.613281 13.800781 11.640625 13.8125 11.640625 13.832031 C 11.640625 13.84375 11.675781 13.859375 11.714844 13.859375 C 11.757812 13.859375 11.792969 13.871094 11.792969 13.890625 C 11.792969 13.90625 11.808594 13.921875 11.832031 13.921875 C 11.855469 13.921875 11.925781 13.945312 11.984375 13.980469 C 12.042969 14.015625 12.117188 14.039062 12.148438 14.039062 C 12.183594 14.039062 12.210938 14.050781 12.210938 14.070312 C 12.210938 14.085938 12.25 14.101562 12.300781 14.101562 C 12.347656 14.101562 12.390625 14.113281 12.390625 14.132812 C 12.390625 14.144531 12.421875 14.160156 12.464844 14.160156 C 12.503906 14.160156 12.546875 14.171875 12.554688 14.191406 C 12.566406 14.207031 12.613281 14.222656 12.660156 14.222656 C 12.707031 14.222656 12.753906 14.230469 12.761719 14.246094 C 12.773438 14.261719 12.832031 14.28125 12.890625 14.289062 C 12.953125 14.296875 13.066406 14.316406 13.140625 14.335938 C 13.214844 14.351562 13.34375 14.371094 13.433594 14.371094 C 13.53125 14.371094 13.585938 14.382812 13.578125 14.398438 C 13.5625 14.417969 13.636719 14.429688 13.769531 14.429688 C 13.890625 14.429688 13.980469 14.441406 13.980469 14.457031 C 13.980469 14.5 15.558594 14.5 15.585938 14.457031 C 15.597656 14.445312 15.6875 14.429688 15.796875 14.429688 C 15.898438 14.429688 15.996094 14.417969 16.007812 14.398438 C 16.015625 14.382812 16.09375 14.371094 16.179688 14.371094 C 16.265625 14.371094 16.394531 14.351562 16.46875 14.339844 C 16.542969 14.320312 16.648438 14.296875 16.703125 14.289062 C 16.757812 14.28125 16.808594 14.261719 16.816406 14.246094 C 16.828125 14.230469 16.871094 14.222656 16.921875 14.222656 C 16.972656 14.222656 17.007812 14.207031 17.007812 14.191406 C 17.007812 14.171875 17.050781 14.160156 17.097656 14.160156 C 17.152344 14.160156 17.1875 14.144531 17.1875 14.132812 C 17.1875 14.113281 17.230469 14.101562 17.28125 14.101562 C 17.328125 14.101562 17.371094 14.085938 17.371094 14.070312 C 17.371094 14.050781 17.402344 14.039062 17.445312 14.039062 C 17.484375 14.039062 17.527344 14.027344 17.535156 14.011719 C 17.542969 13.992188 17.578125 13.980469 17.613281 13.980469 C 17.644531 13.980469 17.671875 13.964844 17.671875 13.949219 C 17.671875 13.933594 17.695312 13.921875 17.730469 13.921875 C 17.765625 13.921875 17.789062 13.90625 17.789062 13.890625 C 17.789062 13.871094 17.816406 13.859375 17.851562 13.859375 C 17.882812 13.859375 17.910156 13.84375 17.910156 13.832031 C 17.910156 13.8125 17.9375 13.800781 17.96875 13.800781 C 18 13.800781 18.03125 13.785156 18.042969 13.769531 C 18.054688 13.753906 18.089844 13.738281 18.121094 13.738281 C 18.152344 13.738281 18.179688 13.726562 18.179688 13.710938 C 18.179688 13.695312 18.199219 13.679688 18.21875 13.679688 C 18.238281 13.679688 18.289062 13.652344 18.324219 13.621094 C 18.355469 13.585938 18.40625 13.558594 18.425781 13.558594 C 18.449219 13.558594 18.484375 13.53125 18.507812 13.5 C 18.53125 13.464844 18.578125 13.4375 18.605469 13.4375 C 18.636719 13.4375 18.660156 13.425781 18.660156 13.410156 C 18.660156 13.394531 18.683594 13.378906 18.710938 13.378906 C 18.742188 13.378906 18.789062 13.351562 18.808594 13.320312 C 18.832031 13.285156 18.871094 13.257812 18.890625 13.257812 C 18.914062 13.257812 18.964844 13.230469 19 13.199219 C 19.035156 13.167969 19.152344 13.074219 19.261719 12.996094 C 19.597656 12.75 20.640625 11.675781 20.640625 11.570312 C 20.640625 11.558594 20.679688 11.503906 20.726562 11.460938 C 20.78125 11.414062 20.820312 11.355469 20.820312 11.335938 C 20.820312 11.3125 20.84375 11.273438 20.878906 11.25 C 20.914062 11.226562 20.9375 11.179688 20.9375 11.152344 C 20.9375 11.121094 20.953125 11.097656 20.96875 11.097656 C 20.988281 11.097656 21 11.078125 21 11.046875 C 21 11.015625 21.027344 10.972656 21.058594 10.949219 C 21.09375 10.925781 21.121094 10.882812 21.121094 10.855469 C 21.121094 10.824219 21.132812 10.796875 21.144531 10.796875 C 21.160156 10.796875 21.191406 10.761719 21.210938 10.707031 C 21.230469 10.660156 21.257812 10.621094 21.273438 10.621094 C 21.285156 10.621094 21.300781 10.59375 21.300781 10.5625 C 21.300781 10.53125 21.3125 10.496094 21.332031 10.484375 C 21.34375 10.472656 21.359375 10.441406 21.359375 10.410156 C 21.359375 10.375 21.371094 10.351562 21.390625 10.351562 C 21.40625 10.351562 21.421875 10.324219 21.421875 10.289062 C 21.421875 10.257812 21.433594 10.230469 21.449219 10.230469 C 21.464844 10.230469 21.480469 10.203125 21.480469 10.171875 C 21.480469 10.136719 21.492188 10.109375 21.511719 10.109375 C 21.527344 10.109375 21.539062 10.082031 21.539062 10.050781 C 21.539062 10.015625 21.550781 9.988281 21.570312 9.988281 C 21.585938 9.988281 21.601562 9.949219 21.601562 9.898438 C 21.601562 9.851562 21.613281 9.808594 21.632812 9.808594 C 21.644531 9.808594 21.660156 9.769531 21.660156 9.71875 C 21.660156 9.671875 21.671875 9.628906 21.691406 9.628906 C 21.707031 9.628906 21.722656 9.589844 21.722656 9.539062 C 21.722656 9.492188 21.734375 9.449219 21.75 9.449219 C 21.765625 9.449219 21.78125 9.410156 21.78125 9.359375 C 21.78125 9.3125 21.792969 9.265625 21.808594 9.253906 C 21.824219 9.246094 21.84375 9.144531 21.855469 9.03125 C 21.871094 8.914062 21.890625 8.820312 21.902344 8.820312 C 21.917969 8.820312 21.929688 8.738281 21.929688 8.640625 C 21.929688 8.539062 21.941406 8.460938 21.957031 8.460938 C 21.976562 8.460938 21.988281 8.367188 21.988281 8.25 C 21.988281 8.128906 22.003906 8.042969 22.019531 8.042969 C 22.039062 8.042969 22.046875 7.75 22.046875 7.230469 C 22.046875 6.710938 22.039062 6.421875 22.019531 6.421875 C 22.003906 6.421875 21.988281 6.332031 21.988281 6.210938 C 21.988281 6.089844 21.976562 6 21.957031 6 C 21.945312 6 21.929688 5.925781 21.929688 5.835938 C 21.929688 5.746094 21.917969 5.667969 21.902344 5.65625 C 21.886719 5.644531 21.867188 5.539062 21.855469 5.414062 C 21.839844 5.289062 21.820312 5.191406 21.808594 5.191406 C 21.792969 5.191406 21.78125 5.160156 21.78125 5.121094 C 21.78125 5.050781 21.714844 4.84375 21.679688 4.8125 C 21.667969 4.796875 21.660156 4.761719 21.660156 4.71875 C 21.660156 4.679688 21.644531 4.648438 21.632812 4.648438 C 21.613281 4.648438 21.601562 4.621094 21.601562 4.589844 C 21.601562 4.554688 21.582031 4.496094 21.566406 4.464844 C 21.492188 4.320312 21.480469 4.292969 21.480469 4.246094 C 21.480469 4.21875 21.464844 4.203125 21.449219 4.203125 C 21.433594 4.203125 21.421875 4.175781 21.421875 4.140625 C 21.421875 4.109375 21.40625 4.082031 21.390625 4.082031 C 21.371094 4.082031 21.359375 4.054688 21.359375 4.019531 C 21.359375 3.988281 21.34375 3.960938 21.332031 3.960938 C 21.3125 3.960938 21.300781 3.933594 21.300781 3.902344 C 21.300781 3.867188 21.285156 3.839844 21.269531 3.839844 C 21.253906 3.839844 21.238281 3.8125 21.238281 3.78125 C 21.238281 3.746094 21.226562 3.71875 21.210938 3.71875 C 21.195312 3.71875 21.179688 3.703125 21.179688 3.679688 C 21.179688 3.660156 21.15625 3.617188 21.128906 3.582031 C 21.058594 3.503906 20.96875 3.359375 20.949219 3.292969 C 20.941406 3.265625 20.921875 3.238281 20.90625 3.238281 C 20.890625 3.238281 20.878906 3.226562 20.878906 3.207031 C 20.878906 3.1875 20.839844 3.136719 20.789062 3.089844 C 20.742188 3.042969 20.699219 2.992188 20.699219 2.972656 C 20.699219 2.953125 20.6875 2.921875 20.667969 2.902344 C 20.550781 2.765625 20.523438 2.71875 20.523438 2.695312 C 20.523438 2.679688 20.433594 2.585938 20.324219 2.476562 C 20.21875 2.367188 20.128906 2.269531 20.128906 2.257812 C 20.128906 2.203125 19.761719 1.859375 19.707031 1.859375 C 19.6875 1.859375 19.597656 1.777344 19.5 1.679688 C 19.410156 1.582031 19.320312 1.5 19.308594 1.5 C 19.292969 1.5 19.246094 1.457031 19.203125 1.410156 C 19.152344 1.363281 19.097656 1.320312 19.082031 1.320312 C 19.058594 1.320312 19.003906 1.277344 18.960938 1.230469 C 18.914062 1.183594 18.855469 1.140625 18.835938 1.140625 C 18.8125 1.140625 18.773438 1.113281 18.75 1.078125 C 18.726562 1.046875 18.679688 1.019531 18.652344 1.019531 C 18.621094 1.019531 18.597656 1.007812 18.597656 0.988281 C 18.597656 0.972656 18.578125 0.960938 18.546875 0.960938 C 18.515625 0.960938 18.472656 0.933594 18.449219 0.898438 C 18.425781 0.867188 18.382812 0.839844 18.355469 0.839844 C 18.324219 0.839844 18.296875 0.828125 18.296875 0.808594 C 18.296875 0.792969 18.273438 0.777344 18.238281 0.777344 C 18.207031 0.777344 18.179688 0.769531 18.179688 0.757812 C 18.179688 0.730469 17.957031 0.628906 17.894531 0.628906 C 17.871094 0.628906 17.851562 0.617188 17.851562 0.601562 C 17.851562 0.582031 17.824219 0.570312 17.789062 0.570312 C 17.757812 0.570312 17.730469 0.554688 17.730469 0.542969 C 17.730469 0.523438 17.703125 0.511719 17.671875 0.511719 C 17.636719 0.511719 17.609375 0.496094 17.609375 0.480469 C 17.609375 0.460938 17.566406 0.453125 17.519531 0.453125 C 17.472656 0.453125 17.429688 0.4375 17.429688 0.421875 C 17.429688 0.402344 17.386719 0.390625 17.339844 0.390625 C 17.292969 0.390625 17.25 0.375 17.25 0.359375 C 17.25 0.34375 17.210938 0.332031 17.160156 0.332031 C 17.109375 0.332031 17.070312 0.316406 17.070312 0.300781 C 17.070312 0.28125 17.03125 0.269531 16.976562 0.269531 C 16.929688 0.269531 16.890625 0.253906 16.890625 0.242188 C 16.890625 0.222656 16.84375 0.210938 16.785156 0.210938 C 16.726562 0.210938 16.679688 0.195312 16.679688 0.179688 C 16.679688 0.160156 16.625 0.152344 16.5625 0.152344 C 16.492188 0.152344 16.441406 0.136719 16.441406 0.121094 C 16.441406 0.101562 16.375 0.0898438 16.292969 0.0898438 C 16.207031 0.0898438 16.140625 0.0742188 16.132812 0.0546875 C 16.121094 0.015625 14.167969 -0.0078125 13.65625 0.0195312 "/>
</g>
</svg>
