<?xml version="1.0" encoding="UTF-8"?>
<svg xmlns="http://www.w3.org/2000/svg" xmlns:xlink="http://www.w3.org/1999/xlink" width="30px" height="30px" viewBox="0 0 30 30" version="1.1">
<g id="surface1">
<path style=" stroke:none;fill-rule:evenodd;fill:rgb(88.627451%,90.196078%,22.745098%);fill-opacity:1;" d="M 9.054688 14.515625 C 8.980469 14.523438 8.859375 14.535156 8.773438 14.546875 C 8.6875 14.554688 8.585938 14.570312 8.542969 14.574219 C 8.253906 14.636719 8.03125 14.695312 7.953125 14.726562 C 7.917969 14.742188 7.835938 14.765625 7.765625 14.785156 C 7.695312 14.808594 7.636719 14.832031 7.636719 14.84375 C 7.636719 14.851562 7.605469 14.863281 7.574219 14.863281 C 7.535156 14.863281 7.496094 14.875 7.484375 14.890625 C 7.476562 14.90625 7.445312 14.917969 7.417969 14.917969 C 7.386719 14.917969 7.367188 14.925781 7.367188 14.9375 C 7.367188 14.960938 7.230469 15.027344 7.183594 15.027344 C 7.160156 15.027344 7.144531 15.042969 7.144531 15.050781 C 7.144531 15.070312 7.121094 15.082031 7.089844 15.082031 C 7.058594 15.082031 7.035156 15.09375 7.035156 15.109375 C 7.035156 15.125 7.019531 15.136719 7.007812 15.136719 C 6.988281 15.136719 6.925781 15.171875 6.859375 15.21875 C 6.792969 15.261719 6.726562 15.300781 6.710938 15.300781 C 6.695312 15.300781 6.679688 15.3125 6.679688 15.328125 C 6.679688 15.339844 6.664062 15.355469 6.640625 15.355469 C 6.617188 15.355469 6.601562 15.367188 6.601562 15.382812 C 6.601562 15.394531 6.585938 15.410156 6.574219 15.410156 C 6.550781 15.410156 6.503906 15.445312 6.464844 15.492188 C 6.421875 15.535156 6.371094 15.570312 6.355469 15.570312 C 6.335938 15.570312 6.28125 15.617188 6.226562 15.671875 C 6.171875 15.722656 6.109375 15.777344 6.085938 15.800781 C 6.019531 15.847656 5.640625 16.253906 5.550781 16.371094 C 5.503906 16.429688 5.453125 16.496094 5.433594 16.511719 C 5.414062 16.535156 5.402344 16.566406 5.402344 16.589844 C 5.402344 16.605469 5.375 16.640625 5.347656 16.664062 C 5.316406 16.683594 5.289062 16.71875 5.289062 16.742188 C 5.289062 16.757812 5.277344 16.773438 5.261719 16.773438 C 5.25 16.773438 5.234375 16.785156 5.234375 16.800781 C 5.234375 16.816406 5.214844 16.855469 5.1875 16.882812 C 5.160156 16.914062 5.117188 16.972656 5.097656 17.011719 C 5.078125 17.050781 5.054688 17.09375 5.046875 17.097656 C 5.039062 17.109375 5.015625 17.152344 4.992188 17.195312 C 4.964844 17.242188 4.945312 17.285156 4.9375 17.292969 C 4.90625 17.324219 4.851562 17.429688 4.851562 17.464844 C 4.851562 17.488281 4.847656 17.507812 4.832031 17.511719 C 4.808594 17.527344 4.582031 17.976562 4.582031 18.019531 C 4.582031 18.039062 4.570312 18.054688 4.554688 18.054688 C 4.539062 18.054688 4.527344 18.078125 4.527344 18.109375 C 4.527344 18.136719 4.515625 18.167969 4.5 18.179688 C 4.484375 18.1875 4.46875 18.214844 4.46875 18.242188 C 4.46875 18.265625 4.445312 18.339844 4.417969 18.402344 C 4.386719 18.464844 4.363281 18.53125 4.363281 18.558594 C 4.363281 18.578125 4.351562 18.601562 4.335938 18.613281 C 4.320312 18.621094 4.308594 18.660156 4.308594 18.695312 C 4.308594 18.734375 4.296875 18.769531 4.28125 18.777344 C 4.261719 18.789062 4.261719 18.804688 4.265625 18.820312 C 4.277344 18.832031 4.269531 18.851562 4.257812 18.859375 C 4.238281 18.871094 4.230469 18.921875 4.230469 18.980469 C 4.230469 19.042969 4.214844 19.089844 4.199219 19.089844 C 4.183594 19.089844 4.175781 19.125 4.175781 19.171875 C 4.175781 19.214844 4.160156 19.257812 4.144531 19.265625 C 4.128906 19.277344 4.117188 19.320312 4.117188 19.363281 C 4.117188 19.40625 4.105469 19.449219 4.089844 19.460938 C 4.078125 19.46875 4.0625 19.519531 4.0625 19.566406 C 4.0625 19.621094 4.054688 19.664062 4.035156 19.664062 C 4.023438 19.664062 4.007812 19.710938 4.007812 19.773438 C 4.007812 19.832031 3.996094 19.882812 3.984375 19.894531 C 3.96875 19.90625 3.953125 19.964844 3.953125 20.03125 C 3.953125 20.101562 3.941406 20.152344 3.929688 20.152344 C 3.910156 20.152344 3.894531 20.210938 3.855469 20.523438 C 3.851562 20.597656 3.828125 20.667969 3.816406 20.683594 C 3.800781 20.699219 3.792969 20.773438 3.792969 20.855469 C 3.792969 20.933594 3.78125 21 3.765625 21 C 3.753906 21 3.742188 21.078125 3.738281 21.167969 C 3.734375 21.261719 3.722656 21.351562 3.710938 21.367188 C 3.6875 21.394531 3.671875 21.570312 3.640625 22.117188 C 3.628906 22.257812 3.613281 22.390625 3.597656 22.402344 C 3.5625 22.449219 3.5625 24.710938 3.601562 24.710938 C 3.617188 24.710938 3.625 24.78125 3.625 24.886719 C 3.625 24.980469 3.640625 25.066406 3.648438 25.078125 C 3.675781 25.089844 3.691406 25.15625 3.726562 25.394531 C 3.734375 25.453125 3.753906 25.503906 3.765625 25.515625 C 3.78125 25.527344 3.792969 25.5625 3.792969 25.597656 C 3.792969 25.632812 3.804688 25.664062 3.816406 25.664062 C 3.832031 25.664062 3.847656 25.703125 3.847656 25.742188 C 3.847656 25.792969 3.855469 25.824219 3.875 25.824219 C 3.886719 25.824219 3.898438 25.863281 3.898438 25.910156 C 3.898438 25.953125 3.910156 25.992188 3.925781 25.992188 C 3.941406 25.992188 3.953125 26.015625 3.953125 26.046875 C 3.953125 26.078125 3.96875 26.101562 3.984375 26.101562 C 3.996094 26.101562 4.007812 26.121094 4.007812 26.152344 C 4.007812 26.183594 4.023438 26.207031 4.035156 26.207031 C 4.054688 26.207031 4.0625 26.234375 4.0625 26.265625 C 4.0625 26.292969 4.078125 26.320312 4.089844 26.320312 C 4.105469 26.320312 4.117188 26.34375 4.117188 26.375 C 4.117188 26.402344 4.128906 26.425781 4.144531 26.425781 C 4.160156 26.425781 4.175781 26.445312 4.175781 26.46875 C 4.175781 26.492188 4.183594 26.507812 4.199219 26.507812 C 4.214844 26.507812 4.230469 26.523438 4.230469 26.535156 C 4.230469 26.574219 4.394531 26.832031 4.46875 26.910156 C 4.5 26.941406 4.527344 26.980469 4.527344 26.996094 C 4.527344 27.035156 5.09375 27.597656 5.132812 27.597656 C 5.144531 27.597656 5.148438 27.613281 5.140625 27.632812 C 5.125 27.648438 5.128906 27.65625 5.148438 27.640625 C 5.164062 27.632812 5.207031 27.65625 5.246094 27.695312 C 5.285156 27.730469 5.351562 27.785156 5.394531 27.8125 C 5.433594 27.839844 5.542969 27.90625 5.628906 27.964844 C 5.710938 28.019531 5.800781 28.0625 5.820312 28.0625 C 5.84375 28.0625 5.863281 28.078125 5.863281 28.089844 C 5.863281 28.109375 5.886719 28.117188 5.917969 28.117188 C 5.949219 28.117188 5.972656 28.132812 5.972656 28.144531 C 5.972656 28.160156 5.996094 28.171875 6.023438 28.171875 C 6.054688 28.171875 6.082031 28.183594 6.082031 28.199219 C 6.082031 28.21875 6.109375 28.226562 6.136719 28.226562 C 6.167969 28.226562 6.195312 28.238281 6.195312 28.253906 C 6.195312 28.257812 6.253906 28.285156 6.328125 28.3125 C 6.402344 28.328125 6.464844 28.355469 6.464844 28.371094 C 6.464844 28.378906 6.5 28.390625 6.542969 28.390625 C 6.585938 28.390625 6.632812 28.402344 6.640625 28.417969 C 6.648438 28.433594 6.6875 28.445312 6.722656 28.445312 C 6.761719 28.445312 6.789062 28.460938 6.789062 28.472656 C 6.789062 28.492188 6.835938 28.496094 6.882812 28.496094 C 6.9375 28.496094 6.988281 28.511719 6.992188 28.527344 C 7.003906 28.542969 7.0625 28.554688 7.128906 28.554688 C 7.191406 28.554688 7.257812 28.570312 7.277344 28.589844 C 7.304688 28.613281 8.101562 28.625 11.046875 28.632812 L 14.78125 28.636719 L 14.78125 16.582031 L 14.605469 16.582031 C 14.503906 16.582031 14.429688 16.566406 14.429688 16.554688 C 14.429688 16.539062 14.34375 16.527344 14.234375 16.527344 C 14.113281 16.527344 14.046875 16.515625 14.058594 16.5 C 14.070312 16.480469 14.019531 16.472656 13.9375 16.472656 C 13.863281 16.472656 13.800781 16.460938 13.800781 16.445312 C 13.800781 16.429688 13.753906 16.421875 13.695312 16.421875 C 13.636719 16.421875 13.578125 16.40625 13.566406 16.390625 C 13.550781 16.378906 13.5 16.363281 13.453125 16.363281 C 13.402344 16.355469 13.363281 16.339844 13.363281 16.332031 C 13.363281 16.320312 13.328125 16.308594 13.285156 16.308594 C 13.234375 16.308594 13.199219 16.296875 13.199219 16.28125 C 13.199219 16.265625 13.167969 16.253906 13.132812 16.253906 C 13.09375 16.253906 13.0625 16.242188 13.0625 16.226562 C 13.0625 16.214844 13.03125 16.199219 12.992188 16.199219 C 12.957031 16.199219 12.925781 16.1875 12.925781 16.171875 C 12.925781 16.15625 12.898438 16.148438 12.859375 16.148438 C 12.820312 16.148438 12.789062 16.132812 12.789062 16.121094 C 12.789062 16.101562 12.753906 16.089844 12.707031 16.089844 C 12.667969 16.089844 12.628906 16.078125 12.628906 16.0625 C 12.628906 16.050781 12.605469 16.039062 12.574219 16.039062 C 12.546875 16.039062 12.515625 16.023438 12.503906 16.011719 C 12.496094 15.992188 12.460938 15.980469 12.421875 15.980469 C 12.382812 15.980469 12.355469 15.972656 12.355469 15.960938 C 12.355469 15.9375 12.222656 15.875 12.171875 15.875 C 12.152344 15.875 12.136719 15.863281 12.136719 15.84375 C 12.136719 15.832031 12.121094 15.816406 12.101562 15.816406 C 12.085938 15.816406 12.023438 15.785156 11.96875 15.746094 C 11.910156 15.710938 11.851562 15.683594 11.828125 15.683594 C 11.8125 15.683594 11.777344 15.660156 11.753906 15.628906 C 11.734375 15.601562 11.695312 15.570312 11.667969 15.570312 C 11.640625 15.570312 11.617188 15.566406 11.617188 15.550781 C 11.617188 15.539062 11.585938 15.511719 11.542969 15.488281 C 11.5 15.464844 11.441406 15.429688 11.414062 15.398438 C 11.386719 15.375 11.347656 15.355469 11.328125 15.355469 C 11.3125 15.355469 11.292969 15.34375 11.289062 15.328125 C 11.28125 15.316406 11.261719 15.300781 11.234375 15.292969 C 11.214844 15.292969 11.175781 15.265625 11.152344 15.238281 C 11.125 15.214844 11.089844 15.191406 11.066406 15.191406 C 11.050781 15.191406 11.011719 15.164062 10.992188 15.136719 C 10.972656 15.105469 10.941406 15.082031 10.929688 15.082031 C 10.914062 15.082031 10.851562 15.042969 10.785156 15 C 10.71875 14.957031 10.65625 14.917969 10.648438 14.917969 C 10.636719 14.917969 10.605469 14.898438 10.574219 14.871094 C 10.492188 14.792969 10.152344 14.621094 9.925781 14.542969 C 9.796875 14.5 9.28125 14.480469 9.054688 14.515625 "/>
<path style=" stroke:none;fill-rule:evenodd;fill:rgb(67.843137%,69.411765%,16.862745%);fill-opacity:1;" d="M 20.296875 14.515625 C 20.300781 14.539062 20.261719 14.550781 20.183594 14.550781 C 20.117188 14.550781 20.054688 14.570312 20.050781 14.585938 C 20.039062 14.632812 19.9375 14.628906 19.9375 14.582031 C 19.9375 14.566406 19.921875 14.574219 19.90625 14.605469 C 19.859375 14.683594 19.859375 14.683594 19.8125 14.644531 C 19.789062 14.625 19.773438 14.621094 19.773438 14.632812 C 19.789062 14.695312 19.769531 14.722656 19.71875 14.707031 C 19.679688 14.699219 19.664062 14.707031 19.664062 14.742188 C 19.664062 14.777344 19.652344 14.777344 19.613281 14.753906 C 19.570312 14.734375 19.5625 14.738281 19.566406 14.777344 C 19.566406 14.808594 19.550781 14.820312 19.519531 14.816406 C 19.492188 14.8125 19.472656 14.820312 19.484375 14.832031 C 19.496094 14.839844 19.46875 14.863281 19.429688 14.878906 C 19.34375 14.925781 19.324219 14.925781 19.351562 14.886719 C 19.363281 14.867188 19.359375 14.863281 19.339844 14.875 C 19.324219 14.882812 19.308594 14.90625 19.308594 14.921875 C 19.308594 14.960938 19.234375 15.027344 19.1875 15.027344 C 19.164062 15.027344 19.144531 15.042969 19.144531 15.054688 C 19.144531 15.074219 19.125 15.082031 19.105469 15.074219 C 19.082031 15.0625 19.0625 15.074219 19.0625 15.097656 C 19.0625 15.121094 19.046875 15.136719 19.023438 15.136719 C 19 15.136719 18.980469 15.148438 18.980469 15.160156 C 18.980469 15.179688 18.957031 15.191406 18.925781 15.191406 C 18.894531 15.191406 18.878906 15.203125 18.882812 15.21875 C 18.894531 15.230469 18.882812 15.246094 18.859375 15.246094 C 18.839844 15.246094 18.820312 15.257812 18.820312 15.273438 C 18.820312 15.289062 18.796875 15.300781 18.769531 15.300781 C 18.742188 15.300781 18.707031 15.328125 18.679688 15.355469 C 18.640625 15.410156 18.558594 15.429688 18.589844 15.378906 C 18.601562 15.359375 18.597656 15.355469 18.578125 15.363281 C 18.5625 15.375 18.554688 15.398438 18.5625 15.425781 C 18.570312 15.449219 18.5625 15.464844 18.535156 15.464844 C 18.515625 15.464844 18.492188 15.480469 18.480469 15.5 C 18.472656 15.523438 18.460938 15.523438 18.441406 15.492188 C 18.410156 15.453125 18.394531 15.480469 18.40625 15.550781 C 18.410156 15.566406 18.390625 15.570312 18.367188 15.570312 C 18.347656 15.570312 18.324219 15.585938 18.324219 15.601562 C 18.324219 15.613281 18.308594 15.628906 18.289062 15.628906 C 18.265625 15.628906 18.246094 15.636719 18.246094 15.648438 C 18.246094 15.691406 18.097656 15.742188 18.078125 15.703125 C 18.0625 15.679688 18.054688 15.6875 18.0625 15.722656 C 18.0625 15.761719 18.054688 15.777344 18.019531 15.777344 C 17.996094 15.773438 17.972656 15.785156 17.972656 15.808594 C 17.972656 15.835938 17.949219 15.84375 17.90625 15.835938 C 17.859375 15.828125 17.84375 15.835938 17.851562 15.855469 C 17.859375 15.878906 17.839844 15.886719 17.773438 15.878906 C 17.726562 15.878906 17.703125 15.878906 17.71875 15.890625 C 17.769531 15.914062 17.765625 15.953125 17.714844 15.9375 C 17.695312 15.929688 17.671875 15.9375 17.660156 15.953125 C 17.652344 15.96875 17.628906 15.980469 17.617188 15.980469 C 17.601562 15.980469 17.59375 15.96875 17.601562 15.953125 C 17.613281 15.941406 17.605469 15.925781 17.59375 15.925781 C 17.570312 15.925781 17.550781 15.953125 17.542969 15.980469 C 17.535156 16.011719 17.511719 16.039062 17.492188 16.039062 C 17.46875 16.039062 17.460938 16.023438 17.46875 16.007812 C 17.476562 15.988281 17.464844 15.992188 17.429688 16.011719 C 17.398438 16.03125 17.386719 16.058594 17.390625 16.070312 C 17.398438 16.085938 17.378906 16.09375 17.332031 16.085938 C 17.289062 16.074219 17.261719 16.085938 17.261719 16.109375 C 17.261719 16.128906 17.234375 16.148438 17.195312 16.148438 C 17.15625 16.148438 17.125 16.15625 17.125 16.171875 C 17.125 16.1875 17.09375 16.199219 17.058594 16.199219 C 17.019531 16.199219 16.988281 16.214844 16.988281 16.226562 C 16.988281 16.242188 16.964844 16.253906 16.933594 16.253906 C 16.90625 16.253906 16.886719 16.242188 16.894531 16.226562 C 16.90625 16.214844 16.898438 16.199219 16.882812 16.199219 C 16.855469 16.199219 16.84375 16.242188 16.851562 16.292969 C 16.855469 16.304688 16.824219 16.308594 16.785156 16.304688 C 16.742188 16.292969 16.707031 16.304688 16.699219 16.328125 C 16.683594 16.367188 16.582031 16.378906 16.582031 16.332031 C 16.582031 16.289062 16.535156 16.304688 16.511719 16.363281 C 16.5 16.402344 16.472656 16.421875 16.402344 16.421875 C 16.351562 16.421875 16.308594 16.429688 16.308594 16.445312 C 16.308594 16.460938 16.253906 16.472656 16.1875 16.472656 C 16.121094 16.472656 16.0625 16.484375 16.0625 16.5 C 16.0625 16.515625 15.988281 16.527344 15.898438 16.527344 C 15.804688 16.527344 15.742188 16.539062 15.746094 16.554688 C 15.757812 16.566406 15.640625 16.585938 15.46875 16.59375 C 15.308594 16.597656 15.097656 16.617188 15 16.625 L 14.820312 16.652344 L 14.808594 28.636719 L 18.648438 28.628906 C 22.601562 28.613281 22.5625 28.613281 22.539062 28.578125 C 22.53125 28.5625 22.5625 28.554688 22.605469 28.554688 C 22.660156 28.554688 22.6875 28.566406 22.675781 28.582031 C 22.648438 28.632812 22.703125 28.609375 22.769531 28.554688 C 22.808594 28.519531 22.863281 28.496094 22.933594 28.496094 C 22.996094 28.496094 23.046875 28.492188 23.046875 28.472656 C 23.046875 28.460938 23.082031 28.445312 23.128906 28.445312 C 23.171875 28.445312 23.210938 28.433594 23.210938 28.417969 C 23.210938 28.402344 23.25 28.390625 23.304688 28.390625 C 23.355469 28.390625 23.398438 28.375 23.40625 28.355469 C 23.417969 28.328125 23.429688 28.328125 23.480469 28.355469 C 23.53125 28.390625 23.535156 28.386719 23.535156 28.335938 C 23.535156 28.300781 23.554688 28.285156 23.589844 28.285156 C 23.621094 28.285156 23.652344 28.269531 23.660156 28.253906 C 23.667969 28.238281 23.703125 28.226562 23.742188 28.226562 C 23.777344 28.226562 23.804688 28.21875 23.804688 28.199219 C 23.804688 28.183594 23.832031 28.171875 23.863281 28.171875 C 23.890625 28.171875 23.917969 28.160156 23.917969 28.144531 C 23.917969 28.109375 23.992188 28.113281 24.007812 28.152344 C 24.015625 28.167969 24.023438 28.160156 24.023438 28.125 C 24.027344 28.082031 24.042969 28.0625 24.082031 28.0625 C 24.113281 28.0625 24.136719 28.050781 24.136719 28.039062 C 24.136719 28.023438 24.15625 28.019531 24.179688 28.023438 C 24.203125 28.039062 24.21875 28.023438 24.21875 27.996094 C 24.21875 27.976562 24.238281 27.953125 24.253906 27.953125 C 24.277344 27.953125 24.316406 27.945312 24.34375 27.9375 C 24.378906 27.921875 24.386719 27.929688 24.367188 27.953125 C 24.355469 27.976562 24.359375 27.984375 24.378906 27.96875 C 24.394531 27.960938 24.40625 27.933594 24.402344 27.90625 C 24.394531 27.871094 24.417969 27.859375 24.476562 27.863281 C 24.523438 27.867188 24.542969 27.863281 24.527344 27.851562 C 24.484375 27.839844 24.605469 27.707031 24.660156 27.707031 C 24.683594 27.707031 24.683594 27.71875 24.652344 27.734375 C 24.632812 27.75 24.625 27.761719 24.640625 27.761719 C 24.65625 27.761719 24.691406 27.742188 24.71875 27.722656 C 24.75 27.699219 24.761719 27.679688 24.742188 27.679688 C 24.683594 27.679688 24.945312 27.4375 25.011719 27.425781 C 25.0625 27.421875 25.148438 27.300781 25.101562 27.300781 C 25.09375 27.300781 25.175781 27.21875 25.273438 27.113281 C 25.375 27.011719 25.464844 26.933594 25.476562 26.933594 C 25.488281 26.933594 25.503906 26.921875 25.515625 26.910156 C 25.53125 26.902344 25.523438 26.890625 25.503906 26.890625 C 25.488281 26.890625 25.472656 26.878906 25.472656 26.863281 C 25.472656 26.847656 25.484375 26.839844 25.5 26.851562 C 25.515625 26.859375 25.523438 26.851562 25.511719 26.832031 C 25.503906 26.8125 25.527344 26.78125 25.554688 26.761719 C 25.597656 26.734375 25.609375 26.734375 25.609375 26.761719 C 25.609375 26.777344 25.640625 26.75 25.679688 26.695312 C 25.730469 26.617188 25.738281 26.570312 25.730469 26.519531 C 25.710938 26.460938 25.714844 26.449219 25.757812 26.464844 C 25.796875 26.476562 25.800781 26.46875 25.785156 26.425781 C 25.773438 26.390625 25.78125 26.375 25.808594 26.375 C 25.835938 26.375 25.84375 26.355469 25.835938 26.320312 C 25.824219 26.289062 25.835938 26.265625 25.851562 26.265625 C 25.871094 26.265625 25.882812 26.238281 25.882812 26.210938 C 25.882812 26.183594 25.910156 26.152344 25.941406 26.148438 C 25.996094 26.128906 26 26.121094 25.964844 26.097656 C 25.933594 26.078125 25.933594 26.0625 25.957031 26.054688 C 25.976562 26.046875 25.992188 26.011719 25.992188 25.976562 C 25.992188 25.941406 26.003906 25.910156 26.015625 25.910156 C 26.03125 25.910156 26.046875 25.882812 26.046875 25.851562 C 26.046875 25.820312 26.074219 25.769531 26.109375 25.738281 C 26.140625 25.707031 26.148438 25.695312 26.132812 25.703125 C 26.117188 25.714844 26.101562 25.703125 26.101562 25.667969 C 26.101562 25.640625 26.125 25.601562 26.160156 25.589844 C 26.195312 25.570312 26.207031 25.558594 26.1875 25.558594 C 26.148438 25.554688 26.144531 25.457031 26.183594 25.429688 C 26.195312 25.421875 26.207031 25.367188 26.207031 25.316406 C 26.207031 25.242188 26.226562 25.199219 26.265625 25.175781 C 26.320312 25.132812 26.34375 25.074219 26.289062 25.105469 C 26.273438 25.117188 26.265625 25.085938 26.265625 25.039062 C 26.265625 24.992188 26.277344 24.953125 26.289062 24.953125 C 26.304688 24.953125 26.320312 24.867188 26.320312 24.75 C 26.320312 24.632812 26.328125 24.542969 26.347656 24.542969 C 26.359375 24.542969 26.375 24.46875 26.375 24.375 C 26.375 24.273438 26.386719 24.183594 26.40625 24.164062 C 26.433594 24.136719 26.433594 24.132812 26.40625 24.148438 C 26.382812 24.160156 26.371094 24.011719 26.371094 23.453125 C 26.371094 23.023438 26.355469 22.753906 26.347656 22.785156 C 26.328125 22.820312 26.324219 22.738281 26.324219 22.542969 C 26.320312 22.359375 26.324219 22.253906 26.347656 22.269531 C 26.359375 22.28125 26.375 22.273438 26.375 22.253906 C 26.375 22.242188 26.359375 22.226562 26.347656 22.226562 C 26.328125 22.226562 26.320312 22.191406 26.320312 22.144531 C 26.320312 22.101562 26.304688 22.0625 26.289062 22.0625 C 26.273438 22.0625 26.265625 21.957031 26.265625 21.789062 C 26.265625 21.628906 26.253906 21.519531 26.234375 21.519531 C 26.21875 21.519531 26.207031 21.464844 26.207031 21.40625 C 26.207031 21.34375 26.21875 21.304688 26.234375 21.3125 C 26.253906 21.324219 26.265625 21.316406 26.265625 21.300781 C 26.265625 21.285156 26.253906 21.273438 26.234375 21.273438 C 26.21875 21.273438 26.207031 21.25 26.207031 21.222656 C 26.207031 21.1875 26.195312 21.164062 26.183594 21.164062 C 26.167969 21.164062 26.152344 21.089844 26.152344 21 C 26.152344 20.910156 26.144531 20.839844 26.125 20.839844 C 26.113281 20.839844 26.101562 20.78125 26.101562 20.710938 C 26.101562 20.636719 26.113281 20.59375 26.125 20.605469 C 26.179688 20.636719 26.152344 20.574219 26.101562 20.535156 C 26.046875 20.496094 26.019531 20.324219 26.074219 20.359375 C 26.121094 20.390625 26.101562 20.328125 26.046875 20.289062 C 26.003906 20.257812 25.992188 20.222656 25.992188 20.117188 C 25.992188 20.050781 25.976562 19.992188 25.964844 19.992188 C 25.945312 19.992188 25.9375 19.9375 25.9375 19.871094 C 25.9375 19.800781 25.921875 19.742188 25.910156 19.742188 C 25.894531 19.742188 25.882812 19.703125 25.882812 19.648438 C 25.882812 19.597656 25.871094 19.554688 25.855469 19.554688 C 25.839844 19.554688 25.824219 19.511719 25.824219 19.460938 C 25.824219 19.40625 25.816406 19.363281 25.800781 19.363281 C 25.765625 19.363281 25.765625 19.261719 25.800781 19.238281 C 25.820312 19.226562 25.808594 19.203125 25.769531 19.179688 C 25.722656 19.144531 25.714844 19.121094 25.734375 19.027344 C 25.742188 18.945312 25.738281 18.925781 25.722656 18.953125 C 25.699219 18.988281 25.691406 18.988281 25.675781 18.945312 C 25.667969 18.917969 25.671875 18.882812 25.6875 18.859375 C 25.710938 18.832031 25.710938 18.820312 25.6875 18.804688 C 25.667969 18.789062 25.664062 18.792969 25.675781 18.820312 C 25.683594 18.84375 25.679688 18.839844 25.652344 18.808594 C 25.632812 18.78125 25.621094 18.738281 25.628906 18.707031 C 25.636719 18.671875 25.632812 18.652344 25.605469 18.660156 C 25.582031 18.667969 25.570312 18.648438 25.578125 18.617188 C 25.582031 18.589844 25.5625 18.554688 25.535156 18.53125 C 25.496094 18.5 25.496094 18.492188 25.527344 18.453125 C 25.558594 18.414062 25.554688 18.40625 25.515625 18.394531 C 25.496094 18.382812 25.472656 18.347656 25.472656 18.3125 C 25.472656 18.273438 25.460938 18.246094 25.445312 18.246094 C 25.429688 18.246094 25.417969 18.226562 25.417969 18.203125 C 25.417969 18.179688 25.429688 18.167969 25.445312 18.179688 C 25.460938 18.1875 25.460938 18.171875 25.445312 18.140625 C 25.421875 18.113281 25.394531 18.089844 25.386719 18.097656 C 25.375 18.105469 25.363281 18.085938 25.363281 18.054688 C 25.363281 18.027344 25.351562 18 25.332031 18 C 25.316406 18 25.308594 17.976562 25.316406 17.945312 C 25.324219 17.914062 25.316406 17.886719 25.292969 17.878906 C 25.269531 17.875 25.253906 17.84375 25.253906 17.824219 C 25.253906 17.800781 25.242188 17.78125 25.226562 17.78125 C 25.210938 17.78125 25.199219 17.75 25.199219 17.710938 C 25.199219 17.671875 25.1875 17.652344 25.175781 17.660156 C 25.15625 17.671875 25.148438 17.652344 25.148438 17.621094 C 25.148438 17.589844 25.132812 17.5625 25.117188 17.5625 C 25.101562 17.5625 25.089844 17.535156 25.089844 17.507812 C 25.089844 17.476562 25.082031 17.453125 25.0625 17.453125 C 25.046875 17.453125 25.035156 17.429688 25.035156 17.398438 C 25.035156 17.367188 25.023438 17.347656 25.007812 17.347656 C 24.996094 17.347656 24.980469 17.324219 24.980469 17.292969 C 24.980469 17.265625 24.96875 17.234375 24.945312 17.226562 C 24.921875 17.214844 24.921875 17.207031 24.953125 17.183594 C 24.988281 17.152344 24.988281 17.152344 24.945312 17.164062 C 24.910156 17.179688 24.890625 17.164062 24.878906 17.125 C 24.875 17.09375 24.855469 17.074219 24.839844 17.074219 C 24.828125 17.074219 24.816406 17.054688 24.816406 17.03125 C 24.816406 17.007812 24.804688 16.988281 24.792969 16.988281 C 24.773438 16.988281 24.765625 16.976562 24.765625 16.949219 C 24.765625 16.925781 24.75 16.910156 24.738281 16.910156 C 24.722656 16.910156 24.710938 16.886719 24.710938 16.859375 C 24.710938 16.832031 24.683594 16.796875 24.652344 16.773438 C 24.621094 16.742188 24.605469 16.714844 24.617188 16.679688 C 24.628906 16.632812 24.625 16.628906 24.601562 16.664062 C 24.574219 16.703125 24.566406 16.699219 24.566406 16.636719 C 24.5625 16.625 24.535156 16.59375 24.5 16.566406 C 24.46875 16.535156 24.4375 16.488281 24.425781 16.460938 C 24.417969 16.429688 24.34375 16.332031 24.257812 16.246094 C 24.179688 16.15625 24.117188 16.070312 24.125 16.050781 C 24.132812 16.035156 24.117188 16 24.09375 15.980469 C 24.046875 15.949219 24.046875 15.949219 24.066406 15.980469 C 24.082031 16.007812 24.03125 15.964844 23.953125 15.894531 C 23.882812 15.828125 23.804688 15.777344 23.789062 15.78125 C 23.773438 15.789062 23.753906 15.78125 23.753906 15.769531 C 23.753906 15.75 23.773438 15.734375 23.789062 15.722656 C 23.804688 15.71875 23.796875 15.71875 23.761719 15.722656 C 23.703125 15.742188 23.671875 15.703125 23.71875 15.671875 C 23.734375 15.667969 23.722656 15.667969 23.703125 15.671875 C 23.664062 15.683594 23.511719 15.535156 23.511719 15.484375 C 23.507812 15.464844 23.496094 15.464844 23.480469 15.488281 C 23.460938 15.523438 23.453125 15.523438 23.410156 15.476562 C 23.382812 15.449219 23.324219 15.402344 23.285156 15.382812 C 23.226562 15.355469 23.214844 15.332031 23.222656 15.289062 C 23.234375 15.25 23.234375 15.242188 23.214844 15.269531 C 23.1875 15.308594 23.011719 15.253906 23.035156 15.214844 C 23.042969 15.199219 23.019531 15.191406 22.988281 15.191406 C 22.957031 15.191406 22.941406 15.179688 22.949219 15.160156 C 22.957031 15.148438 22.941406 15.136719 22.910156 15.136719 C 22.875 15.136719 22.84375 15.121094 22.835938 15.097656 C 22.832031 15.074219 22.808594 15.0625 22.785156 15.074219 C 22.769531 15.078125 22.746094 15.058594 22.738281 15.019531 C 22.71875 14.96875 22.714844 14.964844 22.691406 15 C 22.667969 15.03125 22.660156 15.035156 22.632812 15.007812 C 22.613281 14.984375 22.574219 14.972656 22.546875 14.972656 C 22.523438 14.972656 22.5 14.957031 22.5 14.949219 C 22.5 14.929688 22.46875 14.917969 22.425781 14.917969 C 22.394531 14.917969 22.367188 14.90625 22.375 14.890625 C 22.386719 14.875 22.363281 14.863281 22.324219 14.863281 C 22.285156 14.863281 22.253906 14.847656 22.253906 14.835938 C 22.253906 14.816406 22.222656 14.808594 22.179688 14.8125 C 22.128906 14.820312 22.097656 14.808594 22.078125 14.773438 C 22.0625 14.742188 22.03125 14.710938 22.011719 14.707031 C 21.980469 14.699219 21.976562 14.703125 22.003906 14.722656 C 22.035156 14.742188 22.035156 14.75 22 14.761719 C 21.976562 14.773438 21.941406 14.75 21.910156 14.707031 C 21.871094 14.644531 21.863281 14.640625 21.839844 14.683594 C 21.808594 14.742188 21.695312 14.742188 21.722656 14.683594 C 21.734375 14.644531 21.722656 14.640625 21.613281 14.660156 C 21.515625 14.671875 21.488281 14.667969 21.472656 14.632812 C 21.460938 14.597656 21.429688 14.59375 21.332031 14.605469 C 21.238281 14.621094 21.199219 14.613281 21.179688 14.585938 C 21.148438 14.539062 21 14.503906 21 14.539062 C 21 14.550781 20.886719 14.566406 20.753906 14.566406 C 20.542969 14.566406 20.503906 14.558594 20.519531 14.523438 C 20.53125 14.488281 20.507812 14.484375 20.410156 14.484375 C 20.328125 14.484375 20.289062 14.492188 20.296875 14.515625 M 23.945312 15.859375 C 23.980469 15.894531 24.011719 15.925781 24.015625 15.925781 C 24.042969 15.925781 23.953125 15.816406 23.921875 15.804688 C 23.894531 15.796875 23.910156 15.816406 23.945312 15.859375 M 25.714844 26.570312 C 25.714844 26.628906 25.644531 26.703125 25.625 26.675781 C 25.613281 26.660156 25.621094 26.644531 25.632812 26.644531 C 25.648438 26.644531 25.664062 26.621094 25.664062 26.589844 C 25.664062 26.5625 25.675781 26.535156 25.691406 26.535156 C 25.707031 26.535156 25.71875 26.554688 25.714844 26.570312 "/>
<path style=" stroke:none;fill-rule:evenodd;fill:rgb(96.862745%,69.803922%,45.882353%);fill-opacity:1;" d="M 13.777344 1.382812 C 13.671875 1.390625 13.578125 1.402344 13.578125 1.421875 C 13.578125 1.433594 13.527344 1.445312 13.460938 1.445312 C 13.394531 1.445312 13.335938 1.457031 13.335938 1.472656 C 13.335938 1.488281 13.285156 1.503906 13.214844 1.503906 C 13.148438 1.503906 13.085938 1.507812 13.078125 1.527344 C 13.066406 1.539062 13.035156 1.554688 13.003906 1.554688 C 12.933594 1.554688 12.589844 1.671875 12.578125 1.699219 C 12.570312 1.710938 12.53125 1.714844 12.492188 1.714844 C 12.445312 1.714844 12.40625 1.730469 12.40625 1.746094 C 12.40625 1.761719 12.386719 1.773438 12.359375 1.773438 C 12.296875 1.773438 12.164062 1.832031 12.164062 1.859375 C 12.164062 1.871094 12.140625 1.882812 12.109375 1.882812 C 12.082031 1.882812 12.054688 1.890625 12.054688 1.90625 C 12.054688 1.917969 12.015625 1.941406 11.96875 1.949219 C 11.859375 1.976562 11.878906 1.96875 11.734375 2.03125 C 11.671875 2.058594 11.617188 2.09375 11.617188 2.101562 C 11.617188 2.117188 11.59375 2.125 11.5625 2.125 C 11.535156 2.125 11.507812 2.140625 11.507812 2.152344 C 11.507812 2.167969 11.496094 2.183594 11.46875 2.183594 C 11.453125 2.183594 11.410156 2.203125 11.382812 2.230469 C 11.355469 2.257812 11.292969 2.296875 11.253906 2.320312 C 11.207031 2.339844 11.136719 2.390625 11.089844 2.4375 C 11.050781 2.476562 11 2.507812 10.984375 2.507812 C 10.972656 2.507812 10.921875 2.542969 10.882812 2.59375 C 10.839844 2.636719 10.792969 2.675781 10.773438 2.675781 C 10.757812 2.675781 10.679688 2.734375 10.609375 2.808594 C 10.535156 2.886719 10.46875 2.945312 10.460938 2.945312 C 10.402344 2.945312 9.816406 3.53125 9.816406 3.589844 C 9.816406 3.597656 9.757812 3.664062 9.683594 3.734375 C 9.605469 3.8125 9.542969 3.882812 9.542969 3.902344 C 9.542969 3.917969 9.507812 3.96875 9.464844 4.007812 C 9.417969 4.054688 9.382812 4.097656 9.382812 4.117188 C 9.382812 4.132812 9.347656 4.183594 9.300781 4.230469 C 9.261719 4.273438 9.203125 4.351562 9.183594 4.402344 C 9.15625 4.453125 9.121094 4.507812 9.097656 4.527344 C 9.070312 4.546875 9.054688 4.578125 9.054688 4.597656 C 9.054688 4.617188 9.042969 4.636719 9.027344 4.636719 C 9.011719 4.636719 9 4.660156 9 4.691406 C 9 4.71875 8.988281 4.746094 8.976562 4.746094 C 8.960938 4.746094 8.921875 4.816406 8.890625 4.902344 C 8.855469 4.988281 8.8125 5.066406 8.804688 5.078125 C 8.789062 5.085938 8.777344 5.101562 8.777344 5.113281 C 8.78125 5.160156 8.746094 5.289062 8.722656 5.289062 C 8.710938 5.289062 8.699219 5.316406 8.699219 5.347656 C 8.699219 5.375 8.6875 5.402344 8.675781 5.402344 C 8.65625 5.402344 8.644531 5.433594 8.644531 5.464844 C 8.644531 5.503906 8.632812 5.539062 8.617188 5.550781 C 8.601562 5.558594 8.59375 5.597656 8.59375 5.636719 C 8.59375 5.667969 8.578125 5.699219 8.566406 5.699219 C 8.546875 5.699219 8.539062 5.730469 8.539062 5.769531 C 8.539062 5.808594 8.523438 5.835938 8.507812 5.835938 C 8.496094 5.835938 8.480469 5.878906 8.480469 5.933594 C 8.480469 5.988281 8.46875 6.023438 8.453125 6.023438 C 8.4375 6.023438 8.425781 6.078125 8.425781 6.136719 C 8.425781 6.195312 8.414062 6.246094 8.398438 6.246094 C 8.386719 6.246094 8.371094 6.296875 8.371094 6.355469 C 8.371094 6.414062 8.363281 6.464844 8.34375 6.464844 C 8.332031 6.464844 8.320312 6.519531 8.320312 6.585938 C 8.320312 6.652344 8.304688 6.710938 8.292969 6.710938 C 8.277344 6.710938 8.261719 6.789062 8.261719 6.898438 C 8.261719 7.011719 8.25 7.089844 8.234375 7.089844 C 8.21875 7.089844 8.210938 7.394531 8.210938 7.9375 C 8.210938 8.480469 8.21875 8.777344 8.234375 8.777344 C 8.25 8.777344 8.261719 8.863281 8.261719 8.972656 C 8.261719 9.082031 8.277344 9.160156 8.292969 9.160156 C 8.304688 9.160156 8.320312 9.226562 8.320312 9.300781 C 8.320312 9.375 8.332031 9.433594 8.34375 9.433594 C 8.363281 9.433594 8.371094 9.484375 8.371094 9.542969 C 8.371094 9.605469 8.386719 9.652344 8.398438 9.652344 C 8.414062 9.652344 8.425781 9.695312 8.425781 9.746094 C 8.425781 9.800781 8.4375 9.847656 8.453125 9.859375 C 8.46875 9.867188 8.480469 9.90625 8.480469 9.945312 C 8.480469 9.980469 8.496094 10.007812 8.507812 10.007812 C 8.523438 10.007812 8.539062 10.046875 8.539062 10.089844 C 8.539062 10.136719 8.546875 10.171875 8.566406 10.171875 C 8.578125 10.171875 8.59375 10.210938 8.59375 10.257812 C 8.59375 10.296875 8.601562 10.335938 8.617188 10.335938 C 8.632812 10.335938 8.644531 10.371094 8.644531 10.417969 C 8.644531 10.464844 8.65625 10.503906 8.675781 10.503906 C 8.6875 10.503906 8.699219 10.527344 8.699219 10.554688 C 8.699219 10.585938 8.710938 10.609375 8.726562 10.609375 C 8.746094 10.609375 8.753906 10.625 8.753906 10.648438 C 8.753906 10.703125 8.894531 11 8.921875 11.015625 C 8.9375 11.019531 8.949219 11.046875 8.949219 11.074219 C 8.949219 11.105469 8.957031 11.125 8.972656 11.125 C 8.984375 11.125 9 11.144531 9 11.160156 C 9 11.183594 9.023438 11.226562 9.054688 11.261719 C 9.085938 11.292969 9.109375 11.332031 9.109375 11.359375 C 9.109375 11.382812 9.121094 11.398438 9.132812 11.398438 C 9.148438 11.398438 9.171875 11.4375 9.191406 11.480469 C 9.210938 11.527344 9.234375 11.5625 9.25 11.5625 C 9.261719 11.5625 9.273438 11.582031 9.273438 11.601562 C 9.273438 11.621094 9.308594 11.675781 9.355469 11.722656 C 9.398438 11.769531 9.433594 11.820312 9.433594 11.832031 C 9.433594 11.847656 9.472656 11.894531 9.515625 11.941406 C 9.566406 11.988281 9.601562 12.035156 9.601562 12.046875 C 9.601562 12.054688 9.675781 12.132812 9.765625 12.222656 C 9.855469 12.308594 9.921875 12.378906 9.917969 12.378906 C 9.910156 12.378906 9.925781 12.414062 9.960938 12.457031 C 10.0625 12.582031 10.21875 12.738281 10.238281 12.738281 C 10.25 12.738281 10.339844 12.820312 10.445312 12.925781 C 10.546875 13.03125 10.648438 13.121094 10.667969 13.121094 C 10.683594 13.128906 10.742188 13.171875 10.796875 13.222656 C 10.847656 13.269531 10.914062 13.308594 10.929688 13.308594 C 10.949219 13.308594 11 13.34375 11.046875 13.390625 C 11.089844 13.433594 11.136719 13.472656 11.152344 13.472656 C 11.167969 13.472656 11.179688 13.484375 11.179688 13.5 C 11.179688 13.515625 11.207031 13.527344 11.234375 13.527344 C 11.265625 13.527344 11.292969 13.539062 11.292969 13.554688 C 11.292969 13.570312 11.308594 13.578125 11.328125 13.578125 C 11.351562 13.578125 11.371094 13.59375 11.371094 13.609375 C 11.371094 13.625 11.390625 13.636719 11.410156 13.636719 C 11.4375 13.636719 11.453125 13.648438 11.453125 13.667969 C 11.453125 13.675781 11.472656 13.691406 11.5 13.691406 C 11.527344 13.691406 11.570312 13.714844 11.589844 13.746094 C 11.613281 13.777344 11.652344 13.800781 11.675781 13.800781 C 11.707031 13.800781 11.730469 13.8125 11.730469 13.828125 C 11.730469 13.84375 11.75 13.851562 11.78125 13.851562 C 11.8125 13.851562 11.835938 13.867188 11.835938 13.878906 C 11.835938 13.898438 11.859375 13.910156 11.890625 13.910156 C 11.917969 13.910156 11.945312 13.921875 11.945312 13.9375 C 11.945312 13.949219 11.976562 13.960938 12.015625 13.960938 C 12.054688 13.960938 12.085938 13.976562 12.085938 13.988281 C 12.085938 14.007812 12.097656 14.019531 12.121094 14.019531 C 12.144531 14.019531 12.203125 14.042969 12.261719 14.074219 C 12.3125 14.105469 12.378906 14.125 12.40625 14.125 C 12.4375 14.125 12.464844 14.136719 12.464844 14.15625 C 12.464844 14.167969 12.5 14.183594 12.546875 14.183594 C 12.589844 14.183594 12.628906 14.195312 12.628906 14.210938 C 12.628906 14.222656 12.65625 14.234375 12.695312 14.234375 C 12.730469 14.234375 12.769531 14.25 12.777344 14.261719 C 12.789062 14.28125 12.828125 14.292969 12.875 14.292969 C 12.914062 14.292969 12.957031 14.300781 12.964844 14.3125 C 12.976562 14.328125 13.027344 14.34375 13.082031 14.355469 C 13.140625 14.363281 13.242188 14.378906 13.308594 14.398438 C 13.375 14.410156 13.496094 14.429688 13.578125 14.429688 C 13.667969 14.429688 13.714844 14.4375 13.707031 14.457031 C 13.695312 14.46875 13.757812 14.484375 13.878906 14.484375 C 13.988281 14.484375 14.074219 14.492188 14.074219 14.507812 C 14.074219 14.546875 15.507812 14.546875 15.535156 14.507812 C 15.542969 14.496094 15.628906 14.484375 15.722656 14.484375 C 15.816406 14.484375 15.90625 14.46875 15.914062 14.457031 C 15.921875 14.4375 15.992188 14.429688 16.070312 14.429688 C 16.152344 14.429688 16.269531 14.410156 16.332031 14.398438 C 16.402344 14.382812 16.5 14.363281 16.546875 14.355469 C 16.597656 14.34375 16.644531 14.328125 16.652344 14.3125 C 16.660156 14.300781 16.703125 14.292969 16.746094 14.292969 C 16.792969 14.292969 16.828125 14.28125 16.828125 14.261719 C 16.828125 14.25 16.863281 14.234375 16.910156 14.234375 C 16.953125 14.234375 16.988281 14.222656 16.988281 14.210938 C 16.988281 14.195312 17.027344 14.183594 17.074219 14.183594 C 17.121094 14.183594 17.152344 14.167969 17.152344 14.15625 C 17.152344 14.136719 17.183594 14.125 17.222656 14.125 C 17.257812 14.125 17.296875 14.117188 17.300781 14.101562 C 17.3125 14.085938 17.34375 14.074219 17.375 14.074219 C 17.402344 14.074219 17.429688 14.058594 17.429688 14.046875 C 17.429688 14.03125 17.449219 14.019531 17.480469 14.019531 C 17.511719 14.019531 17.535156 14.007812 17.535156 13.988281 C 17.535156 13.976562 17.5625 13.960938 17.59375 13.960938 C 17.621094 13.960938 17.644531 13.949219 17.644531 13.9375 C 17.644531 13.921875 17.671875 13.910156 17.699219 13.910156 C 17.726562 13.910156 17.757812 13.898438 17.769531 13.878906 C 17.773438 13.867188 17.808594 13.851562 17.839844 13.851562 C 17.867188 13.851562 17.890625 13.84375 17.890625 13.828125 C 17.890625 13.8125 17.910156 13.800781 17.925781 13.800781 C 17.945312 13.800781 17.988281 13.777344 18.019531 13.746094 C 18.050781 13.714844 18.09375 13.691406 18.117188 13.691406 C 18.136719 13.691406 18.167969 13.667969 18.1875 13.636719 C 18.210938 13.605469 18.253906 13.578125 18.277344 13.578125 C 18.304688 13.578125 18.324219 13.570312 18.324219 13.554688 C 18.324219 13.539062 18.351562 13.527344 18.375 13.527344 C 18.402344 13.527344 18.441406 13.5 18.464844 13.472656 C 18.484375 13.441406 18.519531 13.417969 18.535156 13.417969 C 18.558594 13.417969 18.601562 13.394531 18.636719 13.363281 C 18.671875 13.332031 18.773438 13.25 18.875 13.179688 C 19.179688 12.953125 20.125 11.976562 20.125 11.878906 C 20.125 11.871094 20.164062 11.820312 20.207031 11.78125 C 20.257812 11.742188 20.289062 11.6875 20.289062 11.671875 C 20.289062 11.644531 20.316406 11.613281 20.347656 11.589844 C 20.375 11.570312 20.398438 11.527344 20.398438 11.5 C 20.398438 11.472656 20.410156 11.453125 20.429688 11.453125 C 20.441406 11.453125 20.457031 11.433594 20.457031 11.40625 C 20.457031 11.378906 20.480469 11.339844 20.507812 11.320312 C 20.539062 11.292969 20.566406 11.257812 20.566406 11.230469 C 20.566406 11.203125 20.574219 11.179688 20.585938 11.179688 C 20.601562 11.179688 20.628906 11.148438 20.644531 11.097656 C 20.667969 11.054688 20.691406 11.019531 20.703125 11.019531 C 20.714844 11.019531 20.726562 10.996094 20.726562 10.964844 C 20.726562 10.9375 20.738281 10.90625 20.757812 10.894531 C 20.769531 10.882812 20.78125 10.855469 20.78125 10.824219 C 20.78125 10.796875 20.792969 10.773438 20.808594 10.773438 C 20.824219 10.773438 20.839844 10.746094 20.839844 10.714844 C 20.839844 10.6875 20.847656 10.664062 20.863281 10.664062 C 20.875 10.664062 20.890625 10.640625 20.890625 10.609375 C 20.890625 10.578125 20.902344 10.554688 20.917969 10.554688 C 20.933594 10.554688 20.945312 10.53125 20.945312 10.503906 C 20.945312 10.46875 20.957031 10.445312 20.972656 10.445312 C 20.988281 10.445312 21 10.410156 21 10.363281 C 21 10.320312 21.015625 10.28125 21.027344 10.28125 C 21.042969 10.28125 21.050781 10.242188 21.050781 10.199219 C 21.050781 10.15625 21.066406 10.121094 21.082031 10.121094 C 21.097656 10.121094 21.109375 10.082031 21.109375 10.035156 C 21.109375 9.992188 21.121094 9.953125 21.136719 9.953125 C 21.152344 9.953125 21.164062 9.917969 21.164062 9.875 C 21.164062 9.828125 21.175781 9.785156 21.1875 9.777344 C 21.203125 9.769531 21.222656 9.675781 21.230469 9.570312 C 21.246094 9.46875 21.261719 9.382812 21.277344 9.382812 C 21.289062 9.382812 21.300781 9.304688 21.300781 9.21875 C 21.300781 9.125 21.3125 9.054688 21.324219 9.054688 C 21.34375 9.054688 21.355469 8.972656 21.355469 8.863281 C 21.355469 8.753906 21.367188 8.675781 21.382812 8.675781 C 21.398438 8.675781 21.40625 8.410156 21.40625 7.9375 C 21.40625 7.464844 21.398438 7.199219 21.382812 7.199219 C 21.367188 7.199219 21.355469 7.121094 21.355469 7.011719 C 21.355469 6.898438 21.34375 6.816406 21.324219 6.816406 C 21.3125 6.816406 21.300781 6.75 21.300781 6.667969 C 21.300781 6.585938 21.289062 6.515625 21.277344 6.503906 C 21.257812 6.496094 21.242188 6.402344 21.230469 6.285156 C 21.222656 6.171875 21.199219 6.082031 21.1875 6.082031 C 21.175781 6.082031 21.164062 6.054688 21.164062 6.019531 C 21.164062 5.953125 21.105469 5.765625 21.074219 5.738281 C 21.0625 5.726562 21.050781 5.691406 21.050781 5.652344 C 21.050781 5.617188 21.042969 5.589844 21.027344 5.589844 C 21.015625 5.589844 21 5.566406 21 5.539062 C 21 5.503906 20.984375 5.453125 20.96875 5.421875 C 20.902344 5.292969 20.890625 5.261719 20.890625 5.226562 C 20.890625 5.199219 20.875 5.183594 20.863281 5.183594 C 20.847656 5.183594 20.839844 5.160156 20.839844 5.125 C 20.839844 5.097656 20.824219 5.074219 20.808594 5.074219 C 20.792969 5.074219 20.78125 5.050781 20.78125 5.019531 C 20.78125 4.988281 20.769531 4.964844 20.757812 4.964844 C 20.738281 4.964844 20.726562 4.9375 20.726562 4.910156 C 20.726562 4.878906 20.714844 4.851562 20.699219 4.851562 C 20.683594 4.851562 20.667969 4.828125 20.667969 4.800781 C 20.667969 4.769531 20.664062 4.746094 20.644531 4.746094 C 20.632812 4.746094 20.617188 4.730469 20.617188 4.710938 C 20.617188 4.691406 20.597656 4.648438 20.570312 4.617188 C 20.507812 4.550781 20.429688 4.417969 20.40625 4.355469 C 20.402344 4.332031 20.382812 4.308594 20.371094 4.308594 C 20.355469 4.308594 20.347656 4.296875 20.347656 4.277344 C 20.347656 4.261719 20.308594 4.214844 20.261719 4.175781 C 20.222656 4.128906 20.183594 4.085938 20.183594 4.0625 C 20.183594 4.050781 20.171875 4.023438 20.152344 4 C 20.050781 3.878906 20.019531 3.835938 20.019531 3.816406 C 20.019531 3.800781 19.9375 3.710938 19.84375 3.613281 C 19.742188 3.515625 19.664062 3.429688 19.664062 3.414062 C 19.664062 3.367188 19.328125 3.058594 19.28125 3.058594 C 19.261719 3.058594 19.179688 2.980469 19.089844 2.886719 C 19.007812 2.800781 18.925781 2.726562 18.914062 2.726562 C 18.90625 2.726562 18.859375 2.6875 18.820312 2.644531 C 18.773438 2.601562 18.726562 2.5625 18.707031 2.5625 C 18.691406 2.5625 18.640625 2.527344 18.601562 2.480469 C 18.558594 2.4375 18.503906 2.402344 18.488281 2.402344 C 18.464844 2.402344 18.429688 2.375 18.410156 2.34375 C 18.386719 2.316406 18.347656 2.292969 18.324219 2.292969 C 18.292969 2.292969 18.269531 2.277344 18.269531 2.265625 C 18.269531 2.246094 18.253906 2.238281 18.222656 2.238281 C 18.195312 2.238281 18.15625 2.210938 18.136719 2.183594 C 18.117188 2.152344 18.074219 2.125 18.050781 2.125 C 18.019531 2.125 18 2.117188 18 2.097656 C 18 2.085938 17.976562 2.070312 17.945312 2.070312 C 17.914062 2.070312 17.890625 2.0625 17.890625 2.054688 C 17.890625 2.027344 17.6875 1.9375 17.632812 1.9375 C 17.609375 1.9375 17.59375 1.921875 17.59375 1.910156 C 17.59375 1.890625 17.566406 1.882812 17.535156 1.882812 C 17.503906 1.882812 17.480469 1.867188 17.480469 1.855469 C 17.480469 1.839844 17.457031 1.828125 17.429688 1.828125 C 17.394531 1.828125 17.371094 1.816406 17.371094 1.800781 C 17.371094 1.78125 17.332031 1.773438 17.292969 1.773438 C 17.246094 1.773438 17.210938 1.761719 17.210938 1.746094 C 17.210938 1.730469 17.171875 1.714844 17.125 1.714844 C 17.085938 1.714844 17.046875 1.707031 17.046875 1.6875 C 17.046875 1.679688 17.007812 1.664062 16.964844 1.664062 C 16.917969 1.664062 16.882812 1.652344 16.882812 1.636719 C 16.882812 1.621094 16.84375 1.609375 16.800781 1.609375 C 16.753906 1.609375 16.714844 1.597656 16.714844 1.582031 C 16.714844 1.566406 16.675781 1.554688 16.625 1.554688 C 16.566406 1.554688 16.527344 1.539062 16.527344 1.527344 C 16.527344 1.507812 16.480469 1.503906 16.421875 1.503906 C 16.359375 1.503906 16.308594 1.488281 16.308594 1.472656 C 16.308594 1.457031 16.25 1.445312 16.175781 1.445312 C 16.097656 1.445312 16.039062 1.433594 16.03125 1.414062 C 16.015625 1.378906 14.246094 1.359375 13.777344 1.382812 "/>
</g>
</svg>
